<?xml version="1.0" encoding="UTF-8"?>
<svg id="Layer_1" xmlns="http://www.w3.org/2000/svg" version="1.1" xmlns:xlink="http://www.w3.org/1999/xlink" viewBox="0 0 40 40" width="40" height="40">
  <!-- Generator: Adobe Illustrator 29.0.0, SVG Export Plug-In . SVG Version: 2.1.0 Build 186)  -->
  <defs>
    <style>
      .st0 {
        fill: url(#linear-gradient);
      }

      .st0, .st1, .st2, .st3, .st4, .st5 {
        isolation: isolate;
      }

      .st0, .st2, .st3, .st4, .st5 {
        mix-blend-mode: color-dodge;
      }

      .st6 {
        fill: url(#radial-gradient);
      }

      .st2 {
        fill: url(#linear-gradient4);
      }

      .st3 {
        fill: url(#linear-gradient1);
      }

      .st4 {
        fill: url(#linear-gradient2);
      }

      .st5 {
        fill: url(#linear-gradient3);
      }
    </style>
    <radialGradient id="radial-gradient" cx="20" cy="20" fx="20" fy="20" r="13.7" gradientUnits="userSpaceOnUse">
      <stop offset="0" stop-color="#ff8416"/>
      <stop offset=".4" stop-color="#9b000d"/>
      <stop offset="1" stop-color="#0d0000"/>
    </radialGradient>
    <linearGradient id="linear-gradient" x1="19.3" y1="19.32" x2="7.1" y2="8.75" gradientUnits="userSpaceOnUse">
      <stop offset="0" stop-color="#000"/>
      <stop offset="0" stop-color="#070707"/>
      <stop offset=".3" stop-color="#1a1a1a"/>
      <stop offset=".5" stop-color="#3b3b3b"/>
      <stop offset=".8" stop-color="#686868"/>
      <stop offset="1" stop-color="#949494"/>
    </linearGradient>
    <linearGradient id="linear-gradient1" x1="24.08" y1="24.38" x2="34.85" y2="34.95" gradientUnits="userSpaceOnUse">
      <stop offset="0" stop-color="#000"/>
      <stop offset="0" stop-color="#070707"/>
      <stop offset=".3" stop-color="#1a1a1a"/>
      <stop offset=".5" stop-color="#3b3b3b"/>
      <stop offset=".8" stop-color="#686868"/>
      <stop offset="1" stop-color="#949494"/>
    </linearGradient>
    <linearGradient id="linear-gradient2" x1="7.1" y1="24.9" x2="15.88" y2="19.67" gradientUnits="userSpaceOnUse">
      <stop offset="0" stop-color="#000"/>
      <stop offset="0" stop-color="#070707"/>
      <stop offset=".3" stop-color="#1a1a1a"/>
      <stop offset=".5" stop-color="#3b3b3b"/>
      <stop offset=".8" stop-color="#686868"/>
      <stop offset="1" stop-color="#949494"/>
    </linearGradient>
    <linearGradient id="linear-gradient3" x1="22.12" y1="19.45" x2="37.7" y2="11.6" gradientUnits="userSpaceOnUse">
      <stop offset="0" stop-color="#000"/>
      <stop offset="0" stop-color="#070707"/>
      <stop offset=".3" stop-color="#1a1a1a"/>
      <stop offset=".5" stop-color="#3b3b3b"/>
      <stop offset=".8" stop-color="#686868"/>
      <stop offset="1" stop-color="#949494"/>
    </linearGradient>
    <linearGradient id="linear-gradient4" x1="19.2" y1="23.97" x2="15.18" y2="33.58" gradientUnits="userSpaceOnUse">
      <stop offset="0" stop-color="#000"/>
      <stop offset="0" stop-color="#070707"/>
      <stop offset=".3" stop-color="#1a1a1a"/>
      <stop offset=".5" stop-color="#3b3b3b"/>
      <stop offset=".8" stop-color="#686868"/>
      <stop offset="1" stop-color="#949494"/>
    </linearGradient>
  </defs>
  <g class="st1">
    <g id="Layer_11" data-name="Layer_1">
      <g>
        <path class="st6" d="M33.7,20c0,7.57-6.13,13.7-13.7,13.7s-9.1-5.25-11.08-10.35c-0.6-1.55-0.93-3.23-0.93-5C7.98,12.45,14.12,6.32,20,6.32s13.5,5.93,13.7,13.32c0,0.13,0,0.25,0,0.38h0Z"/>
        <path class="st0" d="M22.82,31.45c-0.85,0.1-6.55,0.63-10.7-3.45c-3.62-3.57-3.73-8.37-3.78-10.3c-0.05-1.93,0.25-3.53,0.52-4.6c-0.67,1.1-1.17,2.3-1.5,3.57c0,0-0.38,1.53-0.38,3.15c-0.02,7,4.77,10.62,4.77,10.62c2.88,2.18,5.95,2.28,8.37,2.37c3.7,0.12,5.5-1.08,5.92-1.37c0.28-0.2,0.5-0.38,0.65-0.52c-0.55,0.15-1.18,0.3-1.9,0.38c-0.73,0.1-1.38,0.13-1.97,0.13Z"/>
        <path class="st3" d="M29.57,15.38l2.77,0.03c-1.35-3.58-4.18-6.55-7.92-7.97l-0.88,2.37c2.7,1.03,4.83,3.07,6.03,5.57h0Z"/>
        <path class="st4" d="M10.37,18.82c0.15-2.38,1.1-4.53,2.55-6.2l-1.62-1.75c-1.88,2.08-3.12,4.78-3.3,7.8c-0.08,1.37,0.05,2.7,0.37,3.97l2.15-1.27c-0.15-0.82-0.2-1.67-0.15-2.53h0Z"/>
        <path class="st5" d="M33.03,19.22l-2.5-0.58c-0.22,3.67-2.2,6.87-5.13,8.75l1.18,2.25c3.57-2.2,6.05-6,6.43-10.42h0Z"/>
        <path class="st2" d="M13.72,9.17l1.53,2.22c1.12-0.85,2.2-1.3,3.6-1.68l-0.58-2.17c-1.32,0-3.12,0.68-4.53,1.63Z"/>
      </g>
    </g>
  </g>
</svg>