<?xml version="1.0" encoding="UTF-8"?>
<svg id="Layer_1" xmlns="http://www.w3.org/2000/svg" version="1.1" xmlns:xlink="http://www.w3.org/1999/xlink" viewBox="0 0 24 24" width="24" height="24">
  <defs>
    <style>
      .st0 {
        fill: url(#linear-gradient);
      }
      .st0, .st1, .st2, .st3, .st4, .st5 {
        isolation: isolate;
      }
      .st0, .st2, .st3, .st4, .st5 {
        mix-blend-mode: color-dodge;
      }
      .st6 {
        fill: url(#radial-gradient);
      }
      .st2 {
        fill: url(#linear-gradient4);
      }
      .st3 {
        fill: url(#linear-gradient1);
      }
      .st4 {
        fill: url(#linear-gradient2);
      }
      .st5 {
        fill: url(#linear-gradient3);
      }
    </style>
    <radialGradient id="radial-gradient" cx="12" cy="12" fx="12" fy="12" r="8.22" gradientUnits="userSpaceOnUse">
      <stop offset="0" stop-color="#ff8416"/>
      <stop offset=".4" stop-color="#9b000d"/>
      <stop offset="1" stop-color="#0d0000"/>
    </radialGradient>
    <linearGradient id="linear-gradient" x1="11.58" y1="11.59" x2="4.26" y2="5.25" gradientUnits="userSpaceOnUse">
      <stop offset="0" stop-color="#000"/>
      <stop offset="0" stop-color="#070707"/>
      <stop offset=".3" stop-color="#1a1a1a"/>
      <stop offset=".5" stop-color="#3b3b3b"/>
      <stop offset=".8" stop-color="#686868"/>
      <stop offset="1" stop-color="#949494"/>
    </linearGradient>
    <linearGradient id="linear-gradient1" x1="14.45" y1="14.63" x2="20.91" y2="20.97" gradientUnits="userSpaceOnUse">
      <stop offset="0" stop-color="#000"/>
      <stop offset="0" stop-color="#070707"/>
      <stop offset=".3" stop-color="#1a1a1a"/>
      <stop offset=".5" stop-color="#3b3b3b"/>
      <stop offset=".8" stop-color="#686868"/>
      <stop offset="1" stop-color="#949494"/>
    </linearGradient>
    <linearGradient id="linear-gradient2" x1="4.26" y1="14.94" x2="9.53" y2="11.8" gradientUnits="userSpaceOnUse">
      <stop offset="0" stop-color="#000"/>
      <stop offset="0" stop-color="#070707"/>
      <stop offset=".3" stop-color="#1a1a1a"/>
      <stop offset=".5" stop-color="#3b3b3b"/>
      <stop offset=".8" stop-color="#686868"/>
      <stop offset="1" stop-color="#949494"/>
    </linearGradient>
    <linearGradient id="linear-gradient3" x1="13.27" y1="11.67" x2="22.62" y2="6.96" gradientUnits="userSpaceOnUse">
      <stop offset="0" stop-color="#000"/>
      <stop offset="0" stop-color="#070707"/>
      <stop offset=".3" stop-color="#1a1a1a"/>
      <stop offset=".5" stop-color="#3b3b3b"/>
      <stop offset=".8" stop-color="#686868"/>
      <stop offset="1" stop-color="#949494"/>
    </linearGradient>
    <linearGradient id="linear-gradient4" x1="11.52" y1="14.38" x2="9.11" y2="20.15" gradientUnits="userSpaceOnUse">
      <stop offset="0" stop-color="#000"/>
      <stop offset="0" stop-color="#070707"/>
      <stop offset=".3" stop-color="#1a1a1a"/>
      <stop offset=".5" stop-color="#3b3b3b"/>
      <stop offset=".8" stop-color="#686868"/>
      <stop offset="1" stop-color="#949494"/>
    </linearGradient>
  </defs>
  <g class="st1">
    <g id="Layer_11" data-name="Layer_1">
      <g>
        <path class="st6" d="M20.22,12c0,4.54-3.68,8.22-8.22,8.22S6.54,18.07,5.35,15.01c-0.36-0.93-0.56-1.94-0.56-3C4.79,7.47,8.47,3.79,12,3.79s8.1,3.56,8.22,7.99c0,0.08,0,0.15,0,0.23h0Z"/>
        <path class="st0" d="M13.69,18.87c-0.51,0.06-3.93,0.38-6.42-2.07c-2.17-2.14-2.24-5.02-2.27-6.18c-0.03-1.16,0.15-2.12,0.31-2.76c-0.4,0.66-0.7,1.38-0.9,2.14c0,0-0.23,0.92-0.23,1.89c-0.01,4.2,2.86,6.37,2.86,6.37c1.73,1.31,3.57,1.37,5.02,1.42c2.22,0.07,3.3-0.65,3.55-0.82c0.17-0.12,0.3-0.23,0.39-0.31c-0.33,0.09-0.71,0.18-1.14,0.23c-0.44,0.06-0.83,0.08-1.18,0.08Z"/>
        <path class="st3" d="M17.74,9.23l1.66,0.02c-0.81-2.15-2.51-3.93-4.75-4.78l-0.53,1.42c1.62,0.62,2.9,1.84,3.62,3.34h0Z"/>
        <path class="st4" d="M6.22,11.29c0.09-1.43,0.66-2.72,1.53-3.72l-0.97-1.05c-1.13,1.25-1.87,2.87-1.98,4.68c-0.05,0.82,0.03,1.62,0.22,2.38l1.29-0.76c-0.09-0.49-0.12-1-0.09-1.52h0Z"/>
        <path class="st5" d="M19.82,11.53l-1.5-0.35c-0.13,2.2-1.32,4.12-3.08,5.25l0.71,1.35c2.14-1.32,3.63-3.6,3.86-6.25h0Z"/>
        <path class="st2" d="M8.23,5.5l0.92,1.33c0.67-0.51,1.32-0.78,2.16-1.01l-0.35-1.3c-0.79,0-1.87,0.41-2.72,0.98Z"/>
      </g>
    </g>
  </g>
</svg> 