 <svg  version="1.0" xmlns="http://www.w3.org/2000/svg"  width="300.000000pt" height="300.000000pt" viewBox="0 0 300.000000 300.000000"  preserveAspectRatio="xMidYMid meet">  <g transform="translate(0.000000,300.000000) scale(0.100000,-0.100000)" fill="#ffffff" stroke="none"> <path d="M1375 2940 c-126 -10 -190 -23 -323 -66 -226 -73 -397 -179 -572 -354 -217 -217 -349 -468 -405 -765 -23 -123 -23 -388 0 -510 56 -298 189 -549 405 -765 175 -175 347 -281 572 -354 143 -47 248 -64 413 -70 77 -3 174 -8 215 -12 60 -5 92 -2 157 15 147 38 294 98 321 130 8 9 10 10 7 3 -5 -9 8 -6 34 7 23 12 41 26 41 31 0 6 3 9 8 9 16 -3 28 2 52 22 14 11 19 17 11 13 -9 -4 -12 -3 -7 4 4 6 13 9 20 6 7 -3 27 8 44 24 18 17 39 32 47 36 14 5 22 36 9 36 -3 0 -26 -17 -52 -39 -26 -21 -51 -40 -57 -42 -36 -14 -114 -73 -109 -82 5 -9 3 -9 -6 0 -10 9 -24 4 -67 -23 -30 -19 -75 -40 -101 -46 -26 -7 -49 -15 -52 -18 -8 -8 -75 -30 -93 -30 -9 0 -17 -5 -17 -12 0 -6 -3 -9 -6 -6 -3 3 -29 0 -57 -8 -29 -8 -57 -14 -63 -14 -11 0 -58 46 -106 104 -14 16 -30 27 -37 25 -7 -3 8 -27 40 -64 28 -32 47 -61 41 -63 -6 -2 -46 11 -89 30 -59 25 -81 41 -96 66 -30 52 -57 168 -57 249 0 42 -4 73 -10 73 -5 0 -10 -13 -10 -30 0 -38 -15 -39 -34 -2 -8 16 -22 34 -30 41 -9 7 -27 37 -40 67 -14 30 -47 80 -74 112 -43 49 -92 131 -92 153 0 4 21 1 47 -7 25 -8 81 -14 123 -14 l78 0 28 -37 c15 -21 34 -42 41 -46 7 -5 31 -26 52 -48 39 -39 91 -53 106 -29 4 6 -7 10 -25 10 -23 0 -41 11 -74 45 -25 25 -49 45 -54 45 -6 0 -20 14 -32 30 l-21 30 75 0 c65 0 78 -3 105 -26 17 -14 47 -30 66 -35 59 -16 47 -45 -50 -125 -50 -40 -99 -108 -92 -127 2 -6 13 6 26 26 12 20 53 64 91 98 58 51 74 73 99 134 17 41 31 79 31 86 0 22 71 182 105 234 18 28 55 71 84 95 29 25 74 66 102 92 50 46 123 87 233 129 57 21 60 22 70 4 6 -9 30 -41 54 -69 68 -80 70 -89 73 -328 3 -188 1 -218 -15 -253 l-18 -40 -24 45 c-16 32 -23 39 -24 24 0 -32 37 -80 123 -157 55 -50 81 -67 88 -60 8 8 7 13 -1 18 -8 5 -6 13 8 29 84 94 197 302 246 456 53 163 68 262 68 450 0 188 -15 287 -68 450 -69 217 -182 398 -354 570 -310 310 -698 452 -1145 420z m345 -61 c548 -85 1002 -502 1134 -1043 31 -125 50 -317 41 -409 l-7 -69 -52 -32 c-76 -49 -160 -77 -252 -83 l-82 -6 -15 29 c-14 26 -35 52 -103 125 l-24 25 35 71 c30 62 35 81 35 145 0 80 -13 140 -39 178 -10 14 -30 64 -45 112 -17 51 -46 115 -72 153 -31 46 -39 65 -28 65 8 0 26 11 39 25 37 36 33 77 -13 127 -32 34 -47 42 -92 49 -30 5 -56 13 -58 18 -8 25 -112 144 -146 168 -31 22 -39 25 -46 13 -6 -10 2 -20 33 -38 54 -30 52 -27 28 -51 -12 -12 -21 -27 -21 -33 0 -7 7 -2 16 10 18 26 36 28 54 6 11 -13 10 -16 -9 -21 -12 -3 -28 -18 -36 -34 -13 -25 -13 -32 4 -73 22 -50 49 -69 85 -60 19 4 25 1 30 -20 3 -14 13 -26 21 -26 14 0 13 3 0 24 -18 26 -28 103 -16 110 15 10 106 -25 133 -51 41 -39 40 -96 -2 -118 -31 -16 -41 -7 -15 15 21 17 19 64 -4 84 -20 18 -95 40 -86 26 3 -5 21 -14 40 -20 47 -15 62 -43 40 -76 -18 -28 -19 -28 -45 -12 -38 24 -32 -2 11 -44 51 -50 122 -179 143 -260 23 -89 6 -140 -70 -206 -62 -55 -110 -62 -196 -31 -50 18 -84 23 -163 24 -91 0 -104 -3 -150 -28 -27 -15 -72 -45 -100 -67 -76 -60 -152 -85 -260 -85 -108 1 -186 22 -247 68 -57 43 -84 86 -98 153 -15 70 -6 123 31 176 28 43 36 68 21 68 -4 0 -23 -26 -42 -57 -32 -52 -35 -64 -35 -133 0 -61 5 -86 27 -131 45 -94 111 -137 250 -164 145 -29 273 1 380 88 60 49 116 76 184 89 52 9 68 8 134 -11 129 -38 152 -42 184 -35 67 14 160 97 172 152 3 15 9 36 13 47 14 35 35 -51 36 -145 0 -78 -3 -90 -34 -147 -18 -34 -41 -69 -50 -77 -26 -24 -160 -76 -154 -60 7 20 -4 17 -40 -10 -52 -38 -151 -66 -238 -66 -68 0 -86 -4 -153 -36 -60 -29 -91 -37 -155 -41 -47 -4 -92 -1 -112 6 -31 10 -32 9 -15 -4 51 -39 191 -32 290 14 54 26 78 31 138 31 46 1 94 8 128 20 30 11 59 19 64 20 17 0 -28 -42 -85 -81 -77 -52 -123 -108 -171 -209 -22 -47 -44 -92 -48 -100 -14 -30 -70 -57 -142 -69 -105 -16 -354 -24 -418 -13 -112 20 -236 50 -265 63 -75 34 -178 104 -215 146 -22 25 -43 44 -46 41 -10 -11 82 -106 141 -145 82 -54 147 -82 226 -95 l67 -12 26 -54 27 -55 -76 7 c-94 9 -190 37 -241 72 -91 63 -234 110 -286 95 l-33 -9 43 -1 c53 -1 184 -51 238 -90 22 -16 63 -39 92 -50 51 -20 234 -47 250 -37 4 2 12 2 18 -2 23 -16 93 -111 117 -157 14 -27 46 -72 71 -100 25 -27 46 -59 46 -71 0 -11 9 -55 20 -98 11 -42 18 -81 15 -85 -2 -5 -32 -17 -65 -27 -33 -11 -60 -22 -60 -26 0 -6 68 9 128 27 14 5 22 3 22 -4 0 -7 12 -23 26 -36 l27 -25 -64 1 c-66 1 -246 25 -219 29 8 1 -11 6 -42 11 -32 4 -69 16 -83 25 -14 9 -32 14 -40 10 -37 -14 -249 89 -391 190 -132 93 -294 265 -373 395 -28 45 -27 49 11 38 18 -5 55 -9 81 -9 46 0 49 -2 64 -38 9 -20 17 -39 18 -42 8 -27 29 -63 58 -102 20 -25 33 -49 30 -52 -4 -3 -1 -6 5 -6 6 0 27 -16 48 -35 21 -20 58 -53 83 -75 25 -21 60 -51 76 -65 66 -57 274 -199 281 -192 3 2 -37 35 -88 73 -240 178 -414 341 -449 420 -32 72 -51 159 -40 187 8 21 5 29 -21 52 -75 67 -94 186 -53 340 15 59 30 149 35 220 5 67 19 162 33 215 14 52 28 114 32 136 6 41 7 42 53 46 41 4 96 25 164 63 19 10 32 35 23 44 -3 3 -14 0 -23 -7 -61 -42 -108 -64 -160 -74 -60 -11 -61 -11 -117 23 -62 37 -85 70 -85 120 0 25 10 42 43 74 42 40 49 42 168 65 145 28 190 52 240 125 45 67 156 177 201 198 20 9 52 17 71 17 19 0 72 17 118 39 93 43 194 71 255 71 56 0 183 -34 273 -73 63 -28 85 -33 121 -28 24 3 45 12 48 20 4 11 -5 13 -48 8 -47 -6 -61 -3 -124 28 -93 46 -173 65 -271 66 -89 1 -185 -25 -292 -80 -33 -16 -69 -28 -79 -25 -57 15 -189 -88 -290 -223 -51 -69 -56 -73 -121 -93 -38 -11 -104 -27 -147 -35 -89 -17 -144 -48 -177 -102 -19 -30 -20 -38 -9 -83 13 -55 53 -97 123 -127 26 -12 36 -22 32 -32 -29 -75 -75 -298 -75 -362 0 -41 -7 -99 -15 -129 -40 -143 -56 -253 -45 -304 15 -69 44 -131 74 -157 17 -14 26 -33 26 -51 l0 -28 -98 0 -98 0 -17 37 c-52 111 -90 213 -112 304 -119 494 25 998 386 1344 276 265 633 403 1004 389 66 -3 149 -9 185 -15z m379 -503 c15 -18 3 -46 -19 -46 -20 0 -32 23 -24 45 8 19 28 19 43 1z m-44 -56 c0 -22 -29 -18 -33 3 -3 14 1 18 15 15 10 -2 18 -10 18 -18z m805 -1139 c-39 -177 -140 -391 -246 -525 -41 -52 -48 -57 -55 -40 -4 10 -8 16 -8 12 -1 -4 -15 7 -32 24 -33 35 -34 48 -5 126 11 30 15 62 11 108 -8 107 -9 313 -2 320 6 6 65 13 155 18 12 0 22 3 22 6 0 3 21 12 46 19 25 8 65 28 88 46 l41 31 3 -26 c2 -14 -6 -68 -18 -119z m-1127 -386 c-17 -51 -27 -54 -89 -26 -56 25 -64 41 -22 42 18 0 51 6 73 14 22 7 43 13 47 14 4 1 0 -19 -9 -44z"/> <path d="M1390 2829 c-57 -21 -110 -37 -117 -35 -7 3 -15 1 -18 -4 -8 -12 -66 -27 -135 -34 -164 -17 -233 -26 -238 -31 -11 -11 135 -4 237 11 109 16 275 66 358 109 72 37 31 29 -87 -16z"/> <path d="M1605 2754 c-43 -22 -56 -38 -22 -24 34 12 76 40 62 40 -6 0 -23 -7 -40 -16z"/> <path d="M2077 2618 c-86 -51 -110 -74 -46 -43 48 22 127 69 141 83 26 26 -12 10 -95 -40z"/> <path d="M750 2529 c-21 -4 0 -6 55 -7 89 0 97 4 20 10 -22 2 -56 0 -75 -3z"/> <path d="M1028 2480 c-36 -11 -89 -44 -108 -67 -27 -32 -50 -72 -50 -85 0 -7 8 1 19 17 49 80 126 126 195 118 28 -4 38 -2 31 5 -15 16 -57 22 -87 12z"/> <path d="M1473 2435 c-80 -22 -123 -47 -183 -110 -30 -31 -75 -71 -100 -87 -40 -27 -42 -29 -16 -23 34 7 83 45 140 105 106 113 275 139 485 74 18 -5 23 -4 19 7 -13 40 -239 62 -345 34z"/> <path d="M1842 2388 c3 -7 18 -14 34 -16 28 -2 28 -2 10 13 -24 18 -49 20 -44 3z"/> <path d="M954 2350 c-21 -8 -76 -71 -69 -78 2 -2 16 10 32 26 37 40 71 46 110 22 83 -50 97 -207 22 -245 -41 -22 -64 -18 -103 15 -37 33 -55 29 -27 -6 43 -53 113 -60 163 -15 32 29 33 32 33 109 -1 68 -5 85 -25 116 -24 35 -74 67 -102 65 -7 0 -23 -4 -34 -9z"/> <path d="M1945 2280 c-3 -5 1 -10 10 -10 21 0 45 -24 45 -44 0 -8 -9 -21 -21 -29 -25 -18 -8 -33 21 -17 26 14 26 50 -1 84 -21 27 -43 33 -54 16z"/> <path d="M940 2260 c-30 -30 -28 -103 5 -135 50 -51 115 -17 115 59 0 46 -5 55 -40 79 -32 22 -56 21 -80 -3z m98 -34 c5 -24 -10 -38 -31 -30 -17 6 -23 35 -10 48 12 12 38 1 41 -18z m-48 -51 c0 -19 -20 -29 -32 -17 -15 15 -2 43 17 36 8 -3 15 -12 15 -19z"/> <path d="M1421 2261 c-25 -9 -70 -39 -100 -67 -31 -27 -77 -63 -102 -79 -44 -27 -76 -62 -66 -72 6 -6 116 76 185 138 33 31 70 53 100 61 26 8 46 18 45 23 -2 15 -14 14 -62 -4z"/> <path d="M1458 2219 c-26 -15 -24 -75 3 -90 14 -7 24 -8 31 -1 7 7 3 14 -11 21 -24 13 -28 49 -6 57 15 6 21 24 8 24 -5 0 -16 -5 -25 -11z"/> <path d="M503 2134 c-45 -10 -22 -19 51 -20 81 -1 131 -16 147 -45 8 -15 2 -24 -38 -53 -58 -42 -121 -60 -159 -46 -33 13 -46 3 -20 -16 42 -30 114 -12 194 49 28 22 52 46 52 53 0 8 -12 27 -27 44 -26 28 -35 31 -103 34 -41 3 -85 2 -97 0z"/> <path d="M983 1982 c-18 -2 -33 -7 -33 -13 0 -5 -18 -12 -40 -15 -22 -4 -40 -10 -40 -15 0 -9 46 -3 93 12 15 4 41 6 57 2 19 -3 30 -1 30 5 0 17 -31 28 -67 24z"/> <path d="M723 1893 c-6 -21 -28 -83 -48 -138 -31 -83 -37 -114 -38 -185 -2 -86 13 -159 39 -194 24 -33 26 -11 4 53 -34 102 -28 183 25 344 25 76 45 142 45 147 0 24 -17 7 -27 -27z"/> <path d="M626 1827 c-6 -22 -35 -121 -53 -182 -28 -93 -25 -288 5 -381 23 -69 71 -145 72 -114 0 9 -7 25 -15 38 -35 49 -55 136 -61 262 -5 118 -4 131 24 224 16 56 32 93 36 85 3 -8 3 -4 0 9 -3 14 -1 22 8 22 10 0 10 2 -1 9 -11 7 -10 10 4 18 16 9 16 11 1 16 -10 4 -18 1 -20 -6z"/> <path d="M512 1713 c-17 -41 -32 -148 -32 -222 0 -129 49 -313 93 -350 23 -18 22 -13 -12 60 -59 127 -78 342 -44 478 15 58 12 78 -5 34z"/> <path d="M750 1457 c0 -10 11 -40 25 -68 83 -162 161 -235 325 -304 75 -32 230 -58 263 -46 29 12 17 15 -105 35 -218 36 -370 143 -470 330 -20 39 -38 63 -38 53z"/> <path d="M480 1169 c-2 -81 106 -216 218 -273 58 -30 58 -11 0 22 -94 54 -173 143 -204 229 -7 21 -13 31 -14 22z"/> <path d="M800 1168 c0 -23 103 -107 182 -147 94 -48 241 -83 328 -79 92 4 86 23 -8 24 -157 2 -338 69 -444 164 -32 28 -58 46 -58 38z"/> <path d="M1486 1032 c-17 -27 219 -51 269 -27 15 7 -14 11 -105 16 -69 3 -132 9 -141 13 -10 4 -20 3 -23 -2z"/> <path d="M730 669 c0 -19 2 -24 11 -21 5 1 9 -3 9 -9 0 -5 8 -9 18 -7 9 1 23 -1 29 -5 8 -5 11 -3 7 5 -6 16 -74 49 -74 37z"/> <path d="M1070 673 c-44 -16 -107 -97 -141 -181 -17 -43 11 -13 33 36 12 26 47 71 76 100 30 28 53 52 51 51 -2 0 -11 -3 -19 -6z"/> <path d="M1098 643 c-60 -66 -99 -153 -97 -218 l1 -40 9 44 c12 61 60 160 97 200 18 18 32 35 32 37 0 12 -19 1 -42 -23z"/> <path d="M1145 586 c-20 -31 -38 -104 -30 -124 8 -23 17 -7 20 36 2 22 11 54 20 72 20 39 13 51 -10 16z"/> <path d="M495 2578 l-60 -63 63 60 c58 55 67 65 59 65 -1 0 -29 -28 -62 -62z"/> <path d="M2260 1339 c-47 -14 -121 -41 -118 -45 2 -1 30 4 63 12 33 7 87 14 120 14 55 1 58 2 41 15 -22 17 -54 18 -106 4z"/> <path d="M2206 979 c-62 -15 -57 -22 9 -14 33 5 70 7 82 7 12 -1 25 3 28 8 8 12 -65 12 -119 -1z"/> <path d="M1910 950 c0 -6 29 -10 66 -10 41 0 63 4 59 10 -3 6 -33 10 -66 10 -33 0 -59 -4 -59 -10z"/> <path d="M2152 915 c-81 -22 -190 -72 -243 -111 -27 -20 -49 -38 -49 -40 0 -3 42 17 93 45 158 84 265 109 375 88 57 -12 55 7 -2 22 -58 14 -108 13 -174 -4z"/> <path d="M2176 835 c-42 -12 -79 -25 -83 -29 -11 -10 21 -7 73 9 27 8 63 15 81 15 17 0 34 4 37 9 12 19 -34 17 -108 -4z"/> <path d="M1362 720 c-12 -12 -22 -23 -22 -26 0 -7 38 15 45 26 3 6 11 10 17 10 7 0 -1 -13 -17 -30 -16 -16 -25 -33 -22 -37 4 -3 8 -4 10 -2 2 2 13 17 25 33 34 45 6 65 -36 26z"/> <path d="M1897 657 c-37 -44 -115 -163 -139 -212 -43 -85 -42 -104 2 -27 48 87 91 152 137 206 18 22 33 43 33 48 0 15 -15 8 -33 -15z"/> <path d="M1787 600 c-37 -43 -100 -156 -111 -200 -4 -14 8 2 26 36 19 33 55 91 81 128 55 78 57 97 4 36z"/> <path d="M1498 613 c-24 -15 -68 -79 -68 -98 0 -4 16 13 35 39 20 25 42 46 50 46 8 0 15 7 15 15 0 18 1 18 -32 -2z"/> <path d="M465 450 c49 -49 92 -90 95 -90 2 0 -36 41 -85 90 -49 50 -92 90 -95 90 -2 0 36 -40 85 -90z"/> <path d="M2537 490 c-69 -56 -108 -100 -101 -112 4 -6 15 -1 26 13 11 13 16 17 12 9 -4 -8 23 14 60 50 62 61 76 80 58 80 -4 0 -29 -18 -55 -40z"/> <path d="M1591 374 c-5 -19 -7 -44 -3 -55 6 -14 10 -5 18 36 11 61 0 75 -15 19z"/> <path d="M1500 256 c0 -18 26 -86 34 -86 5 0 -22 91 -29 98 -3 3 -5 -2 -5 -12z"/> </g> </svg> 