<svg xmlns="http://www.w3.org/2000/svg" width="400" height="400" viewBox="0 0 400 400" version="1.1"><path d="M 191.797 3.745 C 196.361 3.930, 203.561 3.929, 207.797 3.742 C 212.034 3.555, 208.300 3.404, 199.500 3.405 C 190.700 3.406, 187.234 3.559, 191.797 3.745 M 177 8.207 C 173.425 8.602, 166.185 9.848, 160.912 10.974 C 155.639 12.101, 145.289 15.061, 137.912 17.552 C 130.535 20.042, 119.550 24.589, 113.500 27.656 C 107.450 30.722, 98.159 36.089, 92.852 39.581 C 87.546 43.073, 81.021 47.848, 78.352 50.191 C 75.684 52.534, 69.211 58.737, 63.970 63.975 C 58.728 69.214, 52.483 75.750, 50.093 78.500 C 47.702 81.250, 42.928 87.775, 39.483 93 C 36.038 98.225, 30.508 107.900, 27.194 114.500 C 23.880 121.100, 19.118 132.915, 16.613 140.754 C 14.108 148.594, 11.076 160.069, 9.874 166.254 C 8.028 175.760, 7.689 180.982, 7.684 200 C 7.678 219.119, 8.009 224.200, 9.880 233.810 C 11.092 240.031, 14.300 251.956, 17.008 260.310 C 19.756 268.786, 24.429 280.362, 27.580 286.500 C 30.686 292.550, 36.086 301.841, 39.579 307.148 C 43.073 312.454, 47.848 318.979, 50.191 321.648 C 52.534 324.316, 58.737 330.786, 63.975 336.025 C 69.214 341.263, 75.750 347.531, 78.500 349.953 C 81.250 352.376, 87.775 357.149, 93 360.560 C 98.225 363.972, 107.497 369.305, 113.604 372.412 C 119.711 375.519, 131.448 380.267, 139.687 382.962 C 147.925 385.658, 159.578 388.816, 165.583 389.981 C 174.193 391.650, 181.466 392.185, 200 392.512 L 223.500 392.927 217 389.999 C 213.425 388.389, 208.476 386.042, 206.003 384.785 C 202.803 383.159, 200.854 381.248, 199.245 378.158 C 198.001 375.770, 195.803 369.717, 194.362 364.707 C 192.297 357.530, 191.769 353.626, 191.871 346.299 C 191.944 341.062, 191.589 337, 191.059 337 C 190.541 337, 189.744 338.891, 189.287 341.202 C 188.592 344.716, 188.250 345.166, 187.198 343.952 C 186.506 343.153, 184.104 340.025, 181.861 337 C 179.617 333.975, 176.502 328.693, 174.938 325.262 C 173.374 321.832, 169.160 315.659, 165.573 311.546 C 161.809 307.230, 157.772 301.247, 156.025 297.396 C 154.361 293.726, 153 290.143, 153 289.433 C 153 288.678, 150.825 287.706, 147.750 287.089 C 144.863 286.508, 140.045 285.561, 137.045 284.984 C 134.045 284.406, 127.380 281.939, 122.234 279.501 C 117.087 277.063, 110.007 273.062, 106.499 270.610 C 102.991 268.158, 100.347 266.739, 100.622 267.458 C 100.898 268.177, 102.783 270.077, 104.812 271.682 C 106.840 273.286, 110.794 275.993, 113.597 277.696 C 116.401 279.400, 121.801 282.142, 125.597 283.790 C 129.394 285.438, 134.885 287.284, 137.799 287.893 C 140.714 288.502, 144.405 289, 146.002 289 C 148.494 289, 149.197 289.656, 150.953 293.627 C 152.079 296.172, 153 298.550, 153 298.912 C 153 299.273, 151.762 300.278, 150.250 301.146 C 148.738 302.013, 145.925 302.595, 144 302.439 C 142.075 302.282, 138.382 301.882, 135.793 301.548 C 133.203 301.215, 128.028 299.793, 124.293 298.388 C 120.557 296.984, 114.966 294.297, 111.869 292.417 C 108.772 290.538, 105.973 289, 105.649 289 C 105.325 289, 102.609 287.879, 99.614 286.509 C 96.619 285.139, 91.561 283.339, 88.374 282.509 C 85.187 281.679, 81.024 281, 79.123 281 C 77.222 281, 75.967 281.300, 76.334 281.667 C 76.701 282.035, 79.541 282.680, 82.644 283.101 C 86.051 283.563, 91.893 285.638, 97.393 288.340 C 102.402 290.801, 108.042 294.174, 109.926 295.837 C 111.810 297.500, 116.535 300.004, 120.426 301.401 C 124.317 302.798, 130.875 304.668, 135 305.555 C 139.125 306.443, 143.131 307.206, 143.903 307.251 C 144.882 307.308, 144.697 307.812, 143.292 308.917 C 142.184 309.788, 140.159 311.400, 138.792 312.500 C 137.425 313.600, 135.458 315.850, 134.421 317.500 C 132.550 320.475, 132.551 320.487, 134.513 319 C 135.602 318.175, 137.103 316.923, 137.850 316.217 C 138.597 315.512, 141.074 313.989, 143.354 312.833 C 145.634 311.677, 147.813 310.242, 148.196 309.645 C 148.578 309.047, 149.168 308.835, 149.507 309.174 C 149.846 309.513, 148.812 311.300, 147.208 313.145 C 145.605 314.990, 143.761 317.512, 143.111 318.750 C 142.461 319.988, 142.188 321, 142.505 321 C 142.821 321, 144.794 319.313, 146.888 317.250 C 148.983 315.188, 151.421 312.938, 152.306 312.250 C 153.191 311.563, 154.610 311, 155.458 311 C 156.306 311, 157.001 311.337, 157.001 311.750 C 157.002 312.163, 158.690 314.373, 160.751 316.662 C 162.813 318.952, 167.200 323.854, 170.500 327.556 C 173.800 331.258, 178.660 336.727, 181.300 339.709 C 183.939 342.691, 186.508 346.206, 187.008 347.520 C 187.507 348.835, 187.750 351.168, 187.547 352.705 C 187.343 354.242, 186.700 356.734, 186.116 358.241 C 185.533 359.749, 185.195 361.549, 185.364 362.241 C 185.534 362.934, 185.486 363.170, 185.258 362.766 C 185.030 362.362, 182.966 363.487, 180.672 365.266 C 178.377 367.045, 176.275 368.725, 176 369 C 175.725 369.275, 173.733 370.400, 171.573 371.500 C 168.410 373.111, 165.671 373.500, 157.488 373.500 C 148.165 373.500, 146.886 373.260, 141.915 370.578 C 138.937 368.972, 133.575 365.836, 130 363.611 C 126.425 361.386, 123.350 359.213, 123.167 358.783 C 122.983 358.352, 122.387 358, 121.841 358 C 121.295 358, 118.070 355.888, 114.674 353.306 C 111.278 350.724, 103.550 344.345, 97.500 339.131 C 91.450 333.916, 84.772 327.816, 82.661 325.575 C 80.549 323.334, 77.331 319.700, 75.510 317.500 C 73.689 315.300, 71.122 310.800, 69.807 307.500 C 68.492 304.200, 66.895 299.700, 66.257 297.500 C 65.620 295.300, 64.780 292.150, 64.389 290.500 C 63.896 288.412, 63.554 288.032, 63.267 289.250 C 62.906 290.777, 61.539 291, 52.552 291 C 46.886 291, 40.884 290.727, 39.215 290.393 C 36.566 289.863, 35.707 288.751, 32.457 281.643 C 30.408 277.164, 27.206 269.548, 25.339 264.717 C 23.473 259.887, 20.838 251.337, 19.483 245.717 C 18.129 240.097, 16.349 230.774, 15.529 224.999 C 14.708 219.225, 14.028 207.860, 14.018 199.743 C 14.008 191.561, 14.679 180.423, 15.525 174.743 C 16.363 169.110, 18.137 159.961, 19.466 154.414 C 20.795 148.867, 23.718 139.502, 25.961 133.602 C 28.204 127.703, 31.810 119.355, 33.974 115.052 C 36.137 110.749, 41.507 101.844, 45.906 95.263 C 50.385 88.561, 58.146 78.836, 63.547 73.155 C 68.851 67.577, 77.316 59.695, 82.358 55.640 C 87.400 51.585, 94.669 46.251, 98.512 43.787 C 102.356 41.323, 109.325 37.466, 114 35.215 C 118.675 32.965, 126.252 29.521, 130.839 27.562 C 135.425 25.603, 139.818 24, 140.602 24 C 141.386 24, 142.809 23.566, 143.764 23.036 C 144.719 22.505, 149.325 21.166, 154 20.059 C 158.675 18.953, 166.471 17.366, 171.325 16.534 C 176.178 15.701, 187.006 14.724, 195.386 14.363 C 205.389 13.931, 214.038 14.130, 220.562 14.942 C 226.028 15.622, 234.728 17.041, 239.895 18.096 C 245.062 19.151, 254.033 21.602, 259.832 23.542 C 265.631 25.482, 274.903 29.261, 280.438 31.938 C 285.972 34.616, 294.090 39.158, 298.478 42.032 C 302.866 44.906, 310.066 50.004, 314.478 53.362 C 318.890 56.719, 326.572 63.523, 331.548 68.483 C 336.525 73.442, 343.598 81.371, 347.266 86.102 C 350.933 90.832, 356.611 99.211, 359.883 104.721 C 363.154 110.231, 366.800 116.866, 367.984 119.465 C 369.168 122.064, 371.506 127.609, 373.178 131.787 C 374.851 135.965, 377.253 142.835, 378.516 147.054 C 379.779 151.273, 381.509 158.275, 382.361 162.613 C 383.213 166.951, 384.419 174.775, 385.041 180 C 385.663 185.225, 386.021 195.919, 385.836 203.765 L 385.500 218.031 382.500 220.491 C 380.850 221.844, 375.450 224.943, 370.500 227.376 C 365.550 229.809, 359.475 232.260, 357 232.822 C 354.525 233.384, 349.470 234.155, 345.768 234.536 C 342.065 234.917, 337.502 234.942, 335.629 234.590 C 333.043 234.105, 331.910 233.197, 330.925 230.818 C 330.211 229.096, 326.336 224.167, 322.314 219.865 C 318.291 215.564, 315 211.801, 315 211.502 C 315 211.204, 316.870 207.031, 319.156 202.230 C 322.599 194.999, 323.393 192.187, 323.779 185.850 C 324.089 180.766, 323.683 175.671, 322.567 170.658 C 321.645 166.510, 319.776 161.476, 318.415 159.470 C 317.055 157.465, 315.456 153.502, 314.863 150.662 C 314.270 147.823, 312.175 141.675, 310.207 137 C 308.239 132.325, 304.712 125.575, 302.369 122 L 298.109 115.500 301.524 113.742 C 303.402 112.775, 305.431 111.064, 306.033 109.939 C 306.634 108.815, 307.152 106.087, 307.182 103.878 C 307.224 100.875, 306.499 98.949, 304.311 96.245 C 302.701 94.257, 300.279 91.804, 298.928 90.796 C 297.541 89.760, 294.083 88.754, 290.986 88.485 L 285.500 88.009 291.426 89.954 C 294.685 91.024, 298.424 93.056, 299.735 94.470 C 301.047 95.884, 302.727 98.495, 303.469 100.271 C 304.211 102.047, 304.575 104.771, 304.278 106.325 C 303.932 108.134, 302.837 109.492, 301.230 110.102 C 299.851 110.627, 298.461 110.794, 298.140 110.474 C 297.820 110.153, 298.062 109.578, 298.679 109.196 C 299.296 108.813, 299.898 107.825, 300.019 107 C 300.139 106.175, 300.170 104.150, 300.087 102.500 C 299.992 100.592, 299.053 98.857, 297.508 97.733 C 296.171 96.761, 293.598 95.723, 291.789 95.427 L 288.500 94.889 291.500 96.570 C 293.150 97.494, 295.288 98.939, 296.250 99.780 C 297.212 100.622, 298 102.520, 298 104 C 298 105.480, 297.077 107.525, 295.950 108.545 C 294.228 110.103, 293.427 110.222, 290.950 109.287 C 289.034 108.564, 288 108.527, 288 109.183 C 288 109.738, 290.365 112.962, 293.256 116.346 C 296.146 119.731, 299.462 123.864, 300.623 125.531 C 301.785 127.198, 303.640 130.348, 304.745 132.531 C 305.850 134.714, 307.959 139.856, 309.430 143.957 C 311.141 148.724, 312.116 153.510, 312.134 157.224 C 312.153 161.187, 311.472 164.458, 309.993 167.515 C 308.800 169.980, 305.501 173.961, 302.662 176.362 C 299.823 178.763, 296.600 181.181, 295.500 181.736 C 294.400 182.291, 291.461 183.040, 288.969 183.401 C 285.353 183.924, 282.525 183.417, 274.969 180.890 C 268.909 178.864, 262.670 177.545, 257.641 177.227 C 253.158 176.944, 247.360 177.257, 244.141 177.956 C 241.039 178.630, 235.575 180.768, 232 182.706 C 228.425 184.644, 223.744 187.814, 221.597 189.751 C 219.450 191.687, 214.500 194.742, 210.597 196.540 C 206.694 198.337, 201.475 200.372, 199 201.062 C 196.525 201.751, 190.675 202.312, 186 202.308 C 180.482 202.303, 174.771 201.558, 169.723 200.184 C 165.445 199.020, 160.270 197.277, 158.223 196.311 C 156.175 195.345, 151.968 192.067, 148.874 189.027 C 144.869 185.092, 142.656 181.883, 141.190 177.886 C 140.057 174.799, 138.846 169.624, 138.500 166.386 C 138.073 162.408, 138.345 158.960, 139.337 155.750 C 140.144 153.137, 140.600 151, 140.351 151 C 140.102 151, 139.206 152.656, 138.361 154.680 C 137.450 156.859, 136.811 161.447, 136.793 165.930 C 136.768 172.272, 137.295 174.765, 140.042 181.301 C 142.492 187.132, 144.503 190.166, 148.001 193.311 C 150.576 195.626, 155.201 198.753, 158.280 200.261 C 161.359 201.768, 167.168 203.701, 171.189 204.555 C 175.210 205.409, 181.425 206.473, 185 206.919 C 190.977 207.664, 192.475 207.419, 203.609 203.873 C 212.976 200.890, 216.939 199.057, 221.109 195.783 C 224.074 193.454, 226.725 191.260, 227 190.906 C 227.275 190.552, 229.817 188.842, 232.650 187.107 C 235.482 185.372, 240.052 183.283, 242.805 182.465 C 245.557 181.648, 250.681 180.936, 254.190 180.883 C 258.999 180.811, 262.903 181.598, 270.036 184.077 C 277.379 186.629, 281.209 187.381, 287.128 187.433 C 294.422 187.497, 295.008 187.327, 300.478 183.560 C 303.624 181.393, 307.640 177.732, 309.401 175.426 C 311.162 173.119, 313.190 169.267, 313.908 166.866 C 314.625 164.465, 315.546 161.603, 315.955 160.506 C 316.627 158.701, 316.858 158.825, 318.403 161.813 C 319.342 163.628, 320.474 168.363, 320.920 172.335 C 321.365 176.307, 321.347 182.355, 320.879 185.775 C 320.369 189.507, 318.650 194.692, 316.579 198.746 C 314.681 202.461, 312.087 206.676, 310.814 208.113 C 309.541 209.551, 306.925 211.687, 305 212.860 C 303.075 214.033, 300.808 214.994, 299.961 214.996 C 299.115 214.998, 296.641 215.909, 294.462 217.019 C 290.849 218.862, 290.398 218.897, 289.320 217.423 C 288.260 215.973, 287.698 216.109, 283.820 218.755 C 281.444 220.375, 275.802 223.119, 271.282 224.851 C 263.967 227.654, 261.923 228, 252.667 228 C 242.791 228, 241.919 228.175, 235.303 231.485 C 231.471 233.402, 226.426 235.644, 224.090 236.468 C 221.755 237.292, 216.265 238.265, 211.891 238.629 C 207.516 238.994, 203.700 239.677, 203.410 240.146 C 203.119 240.616, 205.881 241, 209.547 241 C 213.212 241, 218.900 240.303, 222.186 239.452 C 225.472 238.600, 231.129 236.544, 234.758 234.882 C 240.676 232.171, 242.548 231.827, 252.928 231.541 C 260.214 231.340, 266.167 230.631, 269 229.626 C 271.475 228.748, 273.848 228.023, 274.273 228.015 C 274.698 228.007, 274.310 229.123, 273.411 230.495 C 272.512 231.867, 268.339 235.400, 264.138 238.344 C 259.937 241.289, 254.813 245.568, 252.750 247.852 C 250.688 250.137, 248.997 251.667, 248.994 251.253 C 248.990 250.839, 248.317 251.786, 247.497 253.358 C 246.677 254.930, 245.136 257.855, 244.072 259.858 C 243.009 261.861, 240.968 266.650, 239.537 270.500 C 238.106 274.350, 236.600 278.116, 236.191 278.869 C 235.782 279.622, 233.659 281.529, 231.474 283.105 C 229.227 284.727, 225.127 286.419, 222.039 287 C 219.035 287.566, 212.735 288.456, 208.039 288.980 C 203.343 289.503, 192.549 290.170, 184.054 290.461 C 175.559 290.753, 168.156 291.444, 167.604 291.996 C 166.932 292.668, 169.792 293, 176.257 293 L 185.915 293 188.707 296.666 C 190.243 298.682, 192.445 301.270, 193.600 302.416 C 194.755 303.562, 198.490 307.148, 201.900 310.383 L 208.100 316.267 213.196 315.663 L 218.293 315.060 216.349 317.280 C 215.280 318.501, 213.751 320.364, 212.953 321.421 C 212.154 322.477, 214.200 321.286, 217.500 318.773 C 220.800 316.261, 224.494 313.137, 225.709 311.832 C 226.923 310.527, 229.231 306.543, 230.836 302.980 C 232.441 299.416, 235.425 291.550, 237.467 285.500 C 239.509 279.450, 243.158 270.450, 245.577 265.500 C 248.680 259.147, 251.816 254.588, 256.237 250 C 259.681 246.425, 266.424 240.127, 271.220 236.005 C 276.017 231.883, 282.709 226.837, 286.091 224.792 C 289.474 222.747, 294.325 220.334, 296.871 219.430 C 299.417 218.526, 304.178 216.644, 307.452 215.247 L 313.403 212.707 315.952 216.040 C 317.353 217.873, 320.466 221.651, 322.869 224.436 C 325.273 227.221, 328.177 231.525, 329.323 234 C 331.177 238, 331.485 241.165, 332.099 262.500 C 332.479 275.700, 332.930 286.950, 333.102 287.500 C 333.274 288.050, 333.102 290.342, 332.721 292.593 C 332.339 294.844, 331.100 298.781, 329.967 301.343 C 328.833 303.904, 327.526 306, 327.060 306 C 326.595 306, 325.930 305.261, 325.583 304.357 C 325.237 303.453, 324.687 302.979, 324.362 303.304 C 324.038 303.629, 324.701 305.381, 325.836 307.197 C 326.972 309.014, 330.062 312.525, 332.703 315 C 335.345 317.475, 339.623 321.075, 342.211 323 C 344.799 324.925, 347.168 327.120, 347.475 327.877 C 347.783 328.634, 347.522 329.871, 346.895 330.627 C 346.268 331.382, 345.982 332, 346.259 332 C 346.536 332, 347.924 330.478, 349.343 328.618 C 351.352 325.983, 351.568 325.264, 350.319 325.368 C 349.437 325.440, 348.551 325.041, 348.351 324.480 C 348.151 323.919, 349.352 321.965, 351.022 320.137 C 352.691 318.310, 356.921 312.469, 360.421 307.157 C 363.921 301.846, 369.496 292.100, 372.809 285.500 C 376.121 278.900, 380.875 267.106, 383.372 259.291 C 385.869 251.476, 388.866 240.226, 390.033 234.291 C 391.821 225.194, 392.158 219.812, 392.181 200 C 392.204 179.901, 391.897 174.938, 390.060 165.709 C 388.879 159.774, 385.869 148.524, 383.372 140.709 C 380.875 132.894, 376.121 121.100, 372.809 114.500 C 369.496 107.900, 363.924 98.159, 360.427 92.852 C 356.930 87.546, 352.152 81.021, 349.809 78.352 C 347.466 75.684, 341.263 69.214, 336.025 63.975 C 330.786 58.737, 324.250 52.469, 321.500 50.047 C 318.750 47.624, 312.225 42.848, 307 39.434 C 301.775 36.019, 292.368 30.641, 286.095 27.483 C 279.822 24.325, 268.085 19.581, 260.012 16.939 C 251.939 14.298, 240.422 11.175, 234.417 10.001 C 225.810 8.317, 219.269 7.825, 203.500 7.677 C 192.500 7.574, 180.575 7.812, 177 8.207 M 131 15.049 C 128.525 16.062, 127.175 16.891, 128 16.890 C 128.825 16.889, 131.525 16.039, 134 15 C 136.475 13.961, 137.825 13.133, 137 13.160 C 136.175 13.186, 133.475 14.036, 131 15.049 M 267.500 15.536 C 269.150 16.292, 271.175 16.896, 272 16.879 C 272.825 16.862, 271.925 16.241, 270 15.500 C 268.075 14.759, 266.050 14.154, 265.500 14.157 C 264.950 14.160, 265.850 14.781, 267.500 15.536 M 105.750 26.566 C 103.138 27.926, 101 29.262, 101 29.536 C 101 29.810, 103.362 28.847, 106.250 27.397 C 109.138 25.946, 111.688 24.589, 111.917 24.380 C 112.146 24.171, 111.921 24.021, 111.417 24.047 C 110.912 24.072, 108.362 25.206, 105.750 26.566 M 73.924 48.750 L 71.500 51.500 74.250 49.076 C 75.763 47.742, 77 46.505, 77 46.326 C 77 46.147, 76.853 46, 76.674 46 C 76.495 46, 75.258 47.237, 73.924 48.750 M 181.947 47.465 C 178.893 48.234, 172.904 50.251, 168.638 51.945 C 164.372 53.640, 158.545 56.227, 155.691 57.695 C 152.836 59.163, 147.937 60.680, 144.804 61.067 C 141.671 61.453, 136.953 62.812, 134.319 64.087 C 131.685 65.362, 125.916 69.876, 121.498 74.117 C 117.080 78.359, 110.656 85.917, 107.222 90.914 C 103.788 95.911, 101.474 100, 102.080 100 C 102.685 100, 104.228 98.763, 105.508 97.250 C 106.788 95.737, 110.165 91.656, 113.013 88.179 C 115.861 84.702, 118.434 82.101, 118.731 82.398 C 119.028 82.695, 118.535 84.061, 117.635 85.434 C 116.736 86.806, 116 88.456, 116 89.100 C 116 89.743, 117.005 88.972, 118.233 87.385 C 119.461 85.798, 122.048 82.751, 123.983 80.612 C 125.917 78.474, 130.085 75.492, 133.245 73.985 C 137.773 71.825, 139.945 71.352, 143.495 71.752 C 146.252 72.063, 148 71.860, 148 71.228 C 148 70.661, 146.559 69.284, 144.797 68.168 L 141.594 66.140 144.290 65.463 C 145.773 65.091, 146.738 64.385, 146.434 63.893 C 146.130 63.402, 147.371 62.996, 149.191 62.991 C 151.011 62.986, 154.750 61.875, 157.500 60.522 C 160.250 59.169, 162.985 58.048, 163.578 58.031 C 164.170 58.014, 167.350 56.905, 170.644 55.566 C 173.938 54.228, 178.403 52.867, 180.567 52.542 C 182.730 52.217, 187.958 51.463, 192.184 50.866 C 198.935 49.914, 201.104 50.047, 210.062 51.965 C 215.669 53.165, 223.988 55.364, 228.549 56.850 C 233.110 58.337, 236.622 59.197, 236.353 58.762 C 236.084 58.327, 234.134 57.089, 232.020 56.010 C 229.905 54.931, 225.317 52.973, 221.823 51.658 C 218.329 50.343, 213.002 48.721, 209.985 48.054 C 206.968 47.387, 200.675 46.667, 196 46.454 C 190.743 46.214, 185.381 46.600, 181.947 47.465 M 325 48.500 C 326.292 49.875, 327.574 51, 327.849 51 C 328.124 51, 327.292 49.875, 326 48.500 C 324.708 47.125, 323.426 46, 323.151 46 C 322.876 46, 323.708 47.125, 325 48.500 M 60.980 60.750 L 51.500 70.500 61.250 61.020 C 66.612 55.806, 71 51.418, 71 51.270 C 71 51.121, 70.879 51, 70.730 51 C 70.582 51, 66.194 55.388, 60.980 60.750 M 338 60.500 C 343.203 65.725, 347.685 70, 347.960 70 C 348.235 70, 344.203 65.725, 339 60.500 C 333.797 55.275, 329.315 51, 329.040 51 C 328.765 51, 332.797 55.275, 338 60.500 M 245.500 60 C 244.104 60.600, 243.953 60.903, 245 61.004 C 245.825 61.084, 247.608 61.352, 248.961 61.600 C 250.315 61.849, 252.115 61.767, 252.961 61.419 C 254.236 60.894, 254.157 60.644, 252.500 59.963 C 251.400 59.511, 249.825 59.141, 249 59.141 C 248.175 59.141, 246.600 59.527, 245.500 60 M 257.459 62.067 C 257.096 62.653, 256.957 63.247, 257.150 63.385 C 257.342 63.524, 259.637 64.956, 262.248 66.569 C 264.860 68.181, 266.997 70.007, 266.998 70.628 C 266.999 71.248, 266.325 72.315, 265.500 73 C 264.675 73.685, 264 74.730, 264 75.322 C 264 76.024, 264.418 75.982, 265.200 75.200 C 265.860 74.540, 267.380 74, 268.578 74 C 269.775 74, 271.309 74.668, 271.986 75.483 C 273.006 76.712, 272.778 77.134, 270.661 77.939 C 269.255 78.473, 267.453 79.943, 266.656 81.205 C 265.860 82.467, 264.888 84.569, 264.497 85.875 C 264.106 87.181, 264.190 88.531, 264.683 88.875 C 265.176 89.219, 266.094 91.224, 266.721 93.331 C 267.748 96.777, 267.694 97.090, 266.181 96.452 C 265.257 96.062, 263.488 95.523, 262.250 95.255 C 261.012 94.986, 260 95.239, 260 95.816 C 260 96.393, 260.912 97.155, 262.027 97.508 C 263.141 97.862, 264.783 99.266, 265.676 100.628 C 267.202 102.958, 267.172 103.277, 265.159 105.999 C 263.982 107.591, 263.391 109.124, 263.846 109.405 C 264.302 109.686, 265.647 109.235, 266.837 108.402 C 268.298 107.378, 269 105.834, 269 103.643 C 269 101.859, 268.438 99.809, 267.750 99.086 C 267.003 98.301, 267.874 98.466, 269.913 99.496 C 272.193 100.648, 274.626 101.045, 277.244 100.694 C 280.869 100.208, 281.239 100.387, 282.179 103.084 C 282.738 104.688, 283.602 106, 284.098 106 C 284.594 106, 285 105.826, 285 105.614 C 285 105.402, 284.349 103.974, 283.553 102.440 C 282.757 100.906, 282.119 97.029, 282.134 93.825 C 282.149 90.621, 282.593 88, 283.120 88 C 283.647 88, 283.499 87.373, 282.789 86.607 C 281.695 85.425, 281.399 85.480, 280.833 86.969 C 280.467 87.934, 279.223 88.970, 278.070 89.271 C 276.638 89.646, 275.644 89.203, 274.932 87.872 C 274.358 86.801, 274.169 85.041, 274.512 83.962 C 274.855 82.883, 275.914 82, 276.867 82 C 277.820 82, 279.140 82.540, 279.800 83.200 C 280.460 83.860, 281 84.054, 281 83.630 C 281 83.207, 279.684 80.979, 278.075 78.680 C 276.467 76.381, 272.979 72.188, 270.325 69.363 C 267.671 66.537, 264.060 63.500, 262.300 62.613 C 260.539 61.726, 258.879 61, 258.609 61 C 258.339 61, 257.821 61.480, 257.459 62.067 M 205.477 74.015 C 202.714 74.406, 197.960 75.451, 194.913 76.337 C 191.866 77.223, 187.377 78.838, 184.937 79.926 C 182.210 81.142, 176.846 85.586, 171.020 91.453 C 165.806 96.704, 161.915 101, 162.373 101 C 162.832 101, 167.463 96.972, 172.665 92.049 C 180.835 84.317, 183.237 82.654, 190.311 79.832 C 198.283 76.653, 198.898 76.566, 213.500 76.568 C 226.120 76.570, 229.492 76.905, 234.755 78.682 C 238.195 79.843, 241.260 80.389, 241.565 79.895 C 241.870 79.401, 240.856 78.512, 239.310 77.920 C 237.765 77.329, 234.025 76.238, 231 75.497 C 227.975 74.757, 222.125 73.960, 218 73.727 C 213.875 73.494, 208.239 73.624, 205.477 74.015 M 246.550 81.888 C 247.072 82.376, 248.512 83.081, 249.750 83.455 C 250.988 83.829, 252 83.707, 252 83.184 C 252 82.661, 250.988 81.962, 249.750 81.630 C 248.512 81.299, 247.072 81.021, 246.550 81.014 C 245.950 81.005, 245.950 81.327, 246.550 81.888 M 127.376 87.086 C 125.657 87.584, 123.690 88.669, 123.003 89.496 C 122.317 90.323, 121.984 91, 122.263 91 C 122.543 91, 124.060 90.328, 125.636 89.506 C 127.211 88.685, 129.530 88.010, 130.790 88.006 C 132.049 88.003, 134.753 88.854, 136.798 89.897 C 138.946 90.993, 141.439 93.436, 142.702 95.683 C 143.904 97.822, 145.336 102.360, 145.885 105.768 C 146.617 110.315, 146.555 113.098, 145.651 116.220 C 144.802 119.153, 143.376 121.177, 141.062 122.737 C 139.201 123.991, 136.181 125, 134.286 125 C 132.407 125, 129.886 124.492, 128.684 123.872 C 127.483 123.251, 125.528 121.564, 124.340 120.122 C 123.151 118.680, 121.832 117.845, 121.407 118.266 C 120.982 118.688, 121.536 120.263, 122.638 121.766 C 123.740 123.270, 126.185 125.287, 128.071 126.248 C 129.957 127.210, 132.850 127.997, 134.500 127.997 C 136.150 127.997, 139.066 127.210, 140.980 126.248 C 142.894 125.287, 145.482 122.971, 146.730 121.102 C 148.520 118.423, 148.999 116.308, 148.994 111.102 C 148.991 107.471, 148.537 102.872, 147.984 100.882 C 147.431 98.893, 145.968 95.743, 144.731 93.882 C 143.495 92.022, 140.480 89.487, 138.030 88.250 C 135.580 87.013, 132.884 86.041, 132.038 86.090 C 131.192 86.140, 129.094 86.588, 127.376 87.086 M 269.534 88.945 C 269.175 89.525, 269.160 90.450, 269.500 91 C 269.840 91.550, 271.024 92, 272.132 92 C 273.507 92, 274.040 91.448, 273.812 90.261 C 273.628 89.305, 272.737 88.380, 271.832 88.206 C 270.927 88.032, 269.893 88.364, 269.534 88.945 M 276 92.500 C 276 93.325, 276.450 94, 277 94 C 277.550 94, 278 93.325, 278 92.500 C 278 91.675, 277.550 91, 277 91 C 276.450 91, 276 91.675, 276 92.500 M 127.020 97.284 C 125.656 97.975, 123.949 99.656, 123.227 101.020 C 122.434 102.520, 122.069 105.642, 122.304 108.918 C 122.632 113.488, 123.188 114.779, 125.862 117.168 C 128.084 119.154, 130.096 120, 132.593 120 C 135.195 120, 136.941 119.213, 139.077 117.077 C 141.415 114.739, 141.997 113.288, 141.985 109.827 C 141.976 107.447, 141.575 104.878, 141.094 104.118 C 140.401 103.023, 140.085 103.157, 139.576 104.760 C 139.223 105.873, 138.113 106.999, 137.109 107.261 C 136.105 107.524, 134.545 107.325, 133.642 106.820 C 132.739 106.314, 132 105.027, 132 103.959 C 132 102.891, 132.900 101.455, 134 100.768 C 135.100 100.081, 136 99.249, 136 98.920 C 136 98.591, 134.854 97.799, 133.453 97.161 C 132.052 96.522, 130.590 96.007, 130.203 96.015 C 129.816 96.023, 128.384 96.594, 127.020 97.284 M 192 98.217 C 190.625 98.813, 187.700 100.119, 185.500 101.120 C 183.300 102.122, 178.928 105.414, 175.785 108.436 C 172.642 111.458, 168.292 115.053, 166.119 116.425 C 163.946 117.797, 161.858 119.420, 161.480 120.033 C 161.101 120.646, 162.750 120.148, 165.145 118.926 C 167.540 117.704, 172.425 113.906, 176 110.485 C 179.575 107.064, 183.622 103.680, 184.994 102.966 C 186.366 102.252, 189.486 101.159, 191.927 100.536 C 194.368 99.913, 196.546 98.863, 196.766 98.202 C 196.986 97.541, 196.567 97.030, 195.833 97.068 C 195.100 97.105, 193.375 97.622, 192 98.217 M 78.500 106.227 C 73 107.340, 66.189 108.867, 63.364 109.620 C 59.876 110.550, 56.608 112.446, 53.181 115.527 C 50.380 118.045, 47.633 121.581, 47.010 123.470 C 46.391 125.345, 46.184 128.588, 46.549 130.688 C 46.913 132.784, 48.274 136.156, 49.573 138.180 C 50.872 140.204, 53.873 143.192, 56.240 144.821 C 58.608 146.450, 62.171 148.463, 64.159 149.293 C 67.072 150.510, 69.361 150.626, 75.950 149.889 C 80.448 149.385, 85.720 148.308, 87.668 147.494 C 90.957 146.120, 91.165 146.139, 90.602 147.758 C 90.027 149.409, 90.065 149.410, 91.346 147.766 C 92.090 146.812, 92.991 146.324, 93.349 146.682 C 93.707 147.040, 94 146.808, 94 146.167 C 94 145.525, 94.675 145, 95.500 145 C 96.325 145, 97 145.440, 97 145.977 C 97 146.515, 95.866 149.967, 94.480 153.648 C 93.095 157.330, 91.594 160.828, 91.146 161.421 C 90.697 162.015, 89.776 165.079, 89.098 168.232 C 88.419 171.385, 87.140 175.417, 86.253 177.194 C 85.069 179.569, 84.652 183.214, 84.680 190.970 C 84.705 197.893, 85.312 203.576, 86.448 207.508 C 87.400 210.804, 88.884 214.287, 89.745 215.250 C 90.606 216.213, 91.684 217, 92.140 217 C 92.597 217, 91.988 214.637, 90.786 211.750 C 88.904 207.230, 88.594 204.554, 88.550 192.500 C 88.506 180.285, 88.804 177.607, 90.886 171.500 C 92.199 167.650, 93.869 163.318, 94.598 161.873 C 95.328 160.428, 96.805 155.928, 97.881 151.873 C 98.958 147.818, 99.965 142.700, 100.120 140.500 C 100.326 137.578, 100.042 136.580, 99.066 136.795 C 98.331 136.957, 95.750 138.452, 93.331 140.116 C 90.912 141.780, 87.036 143.966, 84.717 144.973 C 82.397 145.980, 77.799 147.104, 74.498 147.471 C 70.951 147.866, 67.350 147.703, 65.695 147.074 C 64.154 146.488, 60.705 144.576, 58.030 142.825 C 55.355 141.074, 52.229 137.973, 51.083 135.934 C 49.928 133.879, 49 130.429, 49 128.191 C 49 125.260, 49.753 123.242, 51.750 120.827 C 53.263 118.997, 55.400 116.723, 56.500 115.773 C 57.600 114.823, 60.879 113.136, 63.788 112.023 C 66.696 110.910, 70.136 110, 71.432 110 C 72.729 110, 76.874 109.058, 80.645 107.906 C 84.415 106.755, 87.927 105.405, 88.450 104.906 C 88.973 104.408, 89.198 104.046, 88.950 104.101 C 88.703 104.157, 84 105.114, 78.500 106.227 M 193.035 105.934 C 192.466 106.998, 192 109.232, 192 110.899 C 192 112.872, 192.675 114.291, 193.934 114.965 C 194.998 115.534, 196.573 116, 197.434 116 C 198.295 116, 199 115.602, 199 115.117 C 199 114.631, 198.168 114.016, 197.151 113.750 C 196.135 113.484, 195.059 112.335, 194.762 111.197 C 194.464 110.059, 194.819 107.974, 195.551 106.564 C 196.675 104.397, 196.664 104, 195.476 104 C 194.703 104, 193.605 104.870, 193.035 105.934 M 128.176 108.224 C 127.529 108.871, 127 109.937, 127 110.593 C 127 111.249, 127.716 112.061, 128.590 112.396 C 129.465 112.732, 130.590 112.753, 131.090 112.444 C 131.591 112.135, 132 111.289, 132 110.563 C 132 109.838, 131.404 108.750, 130.676 108.146 C 129.710 107.344, 129.035 107.365, 128.176 108.224 M 134 112 C 134 112.550, 134.675 113, 135.500 113 C 136.325 113, 137 112.550, 137 112 C 137 111.450, 136.325 111, 135.500 111 C 134.675 111, 134 111.450, 134 112 M 74.432 115.890 C 74.734 116.379, 78.023 117.371, 81.741 118.094 C 87.065 119.130, 89.220 120.117, 91.888 122.743 L 95.277 126.077 92.910 128.595 C 91.609 129.981, 88.284 132.405, 85.522 133.983 C 82.760 135.561, 78.424 137.373, 75.886 138.011 C 72.555 138.847, 70.206 138.875, 67.442 138.112 C 65.336 137.530, 63.433 137.234, 63.213 137.453 C 62.994 137.673, 64.184 138.561, 65.857 139.426 C 67.531 140.292, 70.043 141, 71.440 141 C 72.836 141, 76.189 140.160, 78.892 139.133 C 81.594 138.106, 86.774 135.069, 90.402 132.383 C 94.070 129.669, 97 126.738, 97 125.785 C 97 124.841, 95.643 122.524, 93.984 120.635 C 91.480 117.783, 89.896 117.013, 84.652 116.100 C 81.178 115.495, 77.334 115, 76.109 115 C 74.884 115, 74.129 115.400, 74.432 115.890 M 14.571 132.571 C 14.204 134.037, 14.096 135.429, 14.331 135.665 C 14.567 135.900, 15.061 134.894, 15.429 133.429 C 15.796 131.963, 15.904 130.571, 15.669 130.335 C 15.433 130.100, 14.939 131.106, 14.571 132.571 M 128.575 136.758 C 128.259 137.074, 128 137.708, 128 138.167 C 128 138.625, 130.287 139, 133.083 139 C 136.705 139, 138.047 138.641, 137.750 137.750 C 137.521 137.060, 135.501 136.429, 133.242 136.341 C 130.992 136.254, 128.892 136.442, 128.575 136.758 M 64.653 164.687 C 63.249 168.984, 61.389 175.200, 60.522 178.500 C 59.654 181.800, 58.520 191.025, 58.002 199 C 57.484 206.975, 56.365 215.975, 55.516 219 C 54.666 222.025, 52.857 229.225, 51.495 235 C 50.133 240.775, 49.014 248.467, 49.009 252.093 C 49.004 256.113, 49.788 260.993, 51.019 264.593 C 52.130 267.842, 53.675 271.850, 54.453 273.500 C 55.231 275.150, 56.743 277.400, 57.811 278.500 C 58.880 279.600, 60.768 281.333, 62.006 282.351 C 63.751 283.785, 64.434 283.915, 65.044 282.929 C 65.539 282.127, 64.456 279.964, 62.115 277.079 C 60.072 274.560, 57.558 270.700, 56.529 268.500 C 55.500 266.300, 54.475 263.825, 54.252 263 C 54.029 262.175, 53.401 258.599, 52.855 255.052 C 52.165 250.564, 52.205 246.614, 52.987 242.052 C 53.604 238.449, 55.166 232.125, 56.456 228 C 57.747 223.875, 59.085 218.719, 59.429 216.542 C 59.774 214.365, 60.424 212.340, 60.876 212.042 C 61.327 211.744, 61.776 209.051, 61.873 206.058 C 61.971 203.065, 62.264 200.403, 62.525 200.142 C 62.786 199.880, 63 201.321, 63 203.343 C 63 205.364, 63.937 211.177, 65.083 216.259 C 66.228 221.342, 68.280 229.100, 69.643 233.500 C 71.005 237.900, 73.270 242.850, 74.674 244.500 C 76.079 246.150, 76.982 246.825, 76.682 246 C 76.382 245.175, 74.782 241.053, 73.127 236.839 C 71.472 232.626, 69.333 225.651, 68.374 221.339 C 67.118 215.691, 66.659 209.448, 66.733 199 C 66.801 189.399, 67.387 182.180, 68.467 177.632 C 69.364 173.855, 69.862 170.528, 69.573 170.239 C 69.284 169.950, 68.720 170.566, 68.320 171.607 C 67.667 173.304, 67.531 173.241, 66.999 171 C 66.673 169.625, 66.740 166.037, 67.147 163.027 C 67.555 160.017, 67.735 157.401, 67.547 157.214 C 67.360 157.026, 66.057 160.389, 64.653 164.687 M 78.079 176.668 C 78.036 177.311, 77.741 178.661, 77.424 179.668 C 76.877 181.409, 76.906 181.412, 77.995 179.712 C 78.626 178.729, 78.920 177.379, 78.650 176.712 C 78.295 175.837, 78.136 175.825, 78.079 176.668 M 75.531 184.750 C 75.156 185.713, 74.498 190.976, 74.069 196.447 C 73.640 201.918, 73.662 210.018, 74.119 214.447 C 74.576 218.876, 75.632 225.095, 76.466 228.267 C 77.301 231.439, 79.120 236.276, 80.509 239.017 C 81.897 241.758, 83.476 244, 84.017 244 C 84.558 244, 85 243.801, 85 243.557 C 85 243.314, 84.118 241.620, 83.040 239.793 C 81.962 237.966, 80.203 233.553, 79.131 229.986 C 78.059 226.419, 76.774 219.225, 76.276 214 C 75.778 208.775, 75.434 201.125, 75.511 197 C 75.588 192.875, 75.991 188.037, 76.405 186.250 C 76.820 184.463, 76.946 183, 76.686 183 C 76.427 183, 75.907 183.787, 75.531 184.750 M 3.402 199 C 3.402 207.525, 3.556 211.012, 3.743 206.750 C 3.931 202.488, 3.931 195.512, 3.743 191.250 C 3.556 186.988, 3.402 190.475, 3.402 199 M 106 218.929 C 106 219.439, 106.675 220.532, 107.500 221.357 C 108.325 222.182, 109 223.060, 109 223.307 C 109 223.555, 110.578 226.378, 112.507 229.581 C 114.435 232.784, 117.248 236.709, 118.757 238.304 C 120.265 239.899, 124.200 243.138, 127.500 245.502 C 130.800 247.866, 137.397 251.598, 142.161 253.794 C 146.924 255.991, 153.899 258.564, 157.661 259.511 C 161.422 260.459, 168.505 261.294, 173.401 261.367 C 179.492 261.458, 182.432 261.124, 182.714 260.309 C 182.959 259.602, 181.374 258.662, 178.814 257.995 C 176.441 257.377, 173.118 256.450, 171.429 255.935 C 169.740 255.421, 167.661 255, 166.809 255 C 165.957 255, 162.407 254.088, 158.919 252.974 C 155.431 251.860, 151.934 251.195, 151.147 251.497 C 149.921 251.968, 149.915 251.802, 151.109 250.331 C 152.103 249.106, 152.133 248.837, 151.215 249.389 C 150.493 249.823, 147.424 249.161, 144.215 247.878 C 141.072 246.622, 137.825 245.069, 137 244.428 C 136.175 243.786, 134.875 243.486, 134.111 243.760 C 133.347 244.035, 132.989 243.827, 133.315 243.299 C 133.642 242.770, 132.355 241.728, 130.455 240.982 C 128.555 240.237, 127 239.333, 127 238.974 C 127 238.615, 125.987 237.849, 124.750 237.271 C 123.513 236.694, 120.784 234.740, 118.687 232.930 C 116.589 231.119, 113.037 227.019, 110.792 223.819 C 108.547 220.618, 106.550 218, 106.355 218 C 106.160 218, 106 218.418, 106 218.929 M 300.500 221.960 C 298.850 222.398, 296.375 223.269, 295 223.894 C 292.936 224.833, 293.372 224.897, 297.500 224.265 C 300.250 223.844, 305.549 223.533, 309.275 223.574 C 313.685 223.622, 315.926 223.273, 315.695 222.574 C 315.501 221.983, 312.677 221.424, 309.421 221.331 C 306.164 221.239, 302.150 221.521, 300.500 221.960 M 121.790 257.897 C 123.600 259.446, 128.775 262.534, 133.290 264.759 C 137.806 266.985, 146.450 270.050, 152.500 271.570 C 160.369 273.547, 165.876 274.315, 171.848 274.269 C 176.506 274.233, 180.683 273.717, 181.298 273.102 C 182.101 272.299, 180.700 272, 176.142 272 C 172.701 272, 165.298 271.061, 159.692 269.914 C 154.087 268.766, 145.319 266.453, 140.209 264.774 C 135.099 263.094, 128.407 260.208, 125.338 258.360 C 122.269 256.512, 119.475 255.018, 119.129 255.041 C 118.783 255.063, 119.981 256.348, 121.790 257.897 M 74.964 265.950 C 76.120 267.572, 79.188 270.732, 81.782 272.971 C 84.377 275.210, 88.844 278.201, 91.709 279.618 C 94.573 281.035, 97.433 282.022, 98.064 281.812 C 98.695 281.602, 96.883 279.983, 94.039 278.215 C 91.194 276.447, 88.463 275, 87.970 275 C 87.477 275, 84.187 272.300, 80.659 269 C 77.131 265.700, 73.934 263, 73.554 263 C 73.175 263, 73.809 264.327, 74.964 265.950 M 203 263.822 C 203 264.392, 205.588 265.404, 208.750 266.071 C 211.912 266.738, 218.755 267.225, 223.955 267.152 C 230.920 267.054, 233.807 266.621, 234.921 265.508 C 236.269 264.159, 234.818 264.003, 221.452 264.057 C 213.213 264.091, 205.691 263.819, 204.736 263.452 C 203.776 263.084, 203 263.249, 203 263.822 M 291.398 277.835 C 291.651 278.245, 290.203 278.648, 288.179 278.731 C 286.156 278.814, 282.363 279.830, 279.750 280.988 C 277.137 282.146, 275 283.286, 275 283.522 C 275 283.758, 276.238 283.498, 277.750 282.946 C 279.262 282.393, 281.175 281.677, 282 281.355 C 282.825 281.033, 285.300 280.485, 287.500 280.137 C 289.700 279.790, 296.592 279.539, 302.815 279.579 C 310.199 279.627, 313.558 279.332, 312.484 278.731 C 311.579 278.225, 306.361 277.648, 300.888 277.450 C 295.415 277.251, 291.145 277.425, 291.398 277.835 M 162 291 C 162 291.550, 162.702 292, 163.559 292 C 164.416 292, 164.840 291.550, 164.500 291 C 164.160 290.450, 163.459 290, 162.941 290 C 162.423 290, 162 290.450, 162 291 M 195.850 293.918 L 190.200 294.500 192.850 297.568 C 194.307 299.255, 197.188 301.654, 199.250 302.899 C 201.313 304.144, 203 305.529, 203 305.976 C 203 306.423, 204.306 308.186, 205.901 309.894 C 208.187 312.341, 209.629 313, 212.701 313 C 214.846 313, 217.092 313.492, 217.693 314.093 C 218.484 314.884, 219.461 314.744, 221.228 313.586 C 222.570 312.707, 224.176 310.977, 224.795 309.743 C 225.414 308.510, 226.051 306.655, 226.210 305.622 C 226.435 304.164, 225.381 303.370, 221.500 302.078 C 218.750 301.163, 214.328 298.745, 211.673 296.707 C 208.551 294.309, 205.903 293.059, 204.173 293.168 C 202.703 293.261, 198.957 293.598, 195.850 293.918 M 200.750 318.080 C 199.787 318.641, 199 319.517, 199 320.028 C 199 320.544, 200.112 320.451, 201.500 319.818 C 202.875 319.192, 204 318.301, 204 317.839 C 204 317.378, 203.662 317.014, 203.250 317.030 C 202.838 317.047, 201.713 317.519, 200.750 318.080 M 152.397 322.593 C 151.571 324.569, 151.031 326.546, 151.198 326.987 C 151.364 327.427, 152.515 325.810, 153.756 323.393 C 154.997 320.977, 155.536 319, 154.955 319 C 154.374 319, 153.222 320.617, 152.397 322.593 M 61 339.500 C 66.203 344.725, 70.685 349, 70.960 349 C 71.235 349, 67.203 344.725, 62 339.500 C 56.797 334.275, 52.315 330, 52.040 330 C 51.765 330, 55.797 334.275, 61 339.500 M 334.437 343.250 L 331.500 346.500 334.750 343.563 C 336.538 341.948, 338 340.485, 338 340.313 C 338 340.141, 337.859 340, 337.687 340 C 337.515 340, 336.052 341.462, 334.437 343.250 M 313.861 360.059 L 311.500 362.119 314.250 360.444 C 315.762 359.523, 317 358.597, 317 358.385 C 317 358.173, 316.825 358, 316.611 358 C 316.397 358, 315.159 358.927, 313.861 360.059 M 214.893 377.750 C 215.423 378.712, 218.151 382.195, 220.955 385.489 C 223.760 388.783, 225.926 392.158, 225.768 392.989 C 225.587 393.945, 223.834 394.737, 220.991 395.147 C 218.521 395.502, 220.775 395.558, 226 395.270 C 231.225 394.982, 235.688 394.579, 235.917 394.373 C 236.146 394.168, 235.326 394, 234.095 394 C 232.864 394, 231.327 393.438, 230.678 392.750 C 230.030 392.063, 226.407 388.012, 222.627 383.750 C 218.847 379.488, 215.344 376, 214.842 376 C 214.311 376, 214.332 376.732, 214.893 377.750 M 133 385.500 C 134.925 386.241, 136.950 386.846, 137.500 386.843 C 138.050 386.840, 137.150 386.219, 135.500 385.464 C 133.850 384.708, 131.825 384.104, 131 384.121 C 130.175 384.138, 131.075 384.759, 133 385.500 M 266 385 C 265.175 385.533, 264.950 385.945, 265.500 385.914 C 266.050 385.884, 267.400 385.473, 268.500 385 C 269.819 384.433, 269.989 384.122, 269 384.086 C 268.175 384.055, 266.825 384.467, 266 385 M 192.250 396.743 C 196.512 396.931, 203.488 396.931, 207.750 396.743 C 212.012 396.556, 208.525 396.402, 200 396.402 C 191.475 396.402, 187.988 396.556, 192.250 396.743" stroke="none" fill="#231b19" fill-rule="evenodd"/><path d="M 172.979 4.964 C 169.392 5.419, 161.742 6.936, 155.979 8.336 C 150.215 9.736, 139.875 12.874, 133 15.309 C 126.125 17.745, 115.550 22.352, 109.500 25.547 C 103.450 28.743, 95.800 33.156, 92.500 35.354 C 89.200 37.552, 86.275 39.619, 86 39.948 C 85.725 40.277, 84.179 41.388, 82.564 42.418 C 80.950 43.447, 78.026 45.687, 76.068 47.395 C 74.109 49.103, 68.523 54.325, 63.655 59 C 58.786 63.675, 51.995 70.875, 48.564 75 C 45.132 79.125, 39.849 86.100, 36.824 90.500 C 33.798 94.900, 28.562 103.762, 25.187 110.194 C 21.677 116.885, 16.933 128.223, 14.099 136.694 C 11.375 144.837, 8.101 156.225, 6.823 162 C 4.692 171.632, 4.505 174.772, 4.561 200 C 4.616 224.621, 4.859 228.599, 6.878 238 C 8.118 243.775, 11.138 254.575, 13.590 262 C 16.042 269.425, 21.025 281.350, 24.664 288.500 C 28.303 295.650, 34.480 306.194, 38.390 311.931 C 43.037 318.748, 50.177 327.088, 59 336.004 C 66.425 343.507, 74.104 351.011, 76.064 352.679 C 78.025 354.346, 80.950 356.553, 82.564 357.582 C 84.179 358.612, 85.725 359.723, 86 360.052 C 86.275 360.381, 89.200 362.465, 92.500 364.684 C 95.800 366.903, 104.350 371.697, 111.500 375.337 C 118.650 378.977, 130.125 383.810, 137 386.076 C 143.875 388.342, 154.225 391.300, 160 392.649 C 168.276 394.582, 174.418 395.226, 189 395.690 C 199.175 396.014, 211.468 395.949, 216.318 395.544 C 222.366 395.040, 225.303 394.375, 225.667 393.426 C 225.959 392.665, 225.366 390.972, 224.349 389.664 C 223.332 388.356, 220.572 384.912, 218.216 382.010 C 215.860 379.109, 214.207 376.459, 214.543 376.123 C 214.880 375.787, 216.807 377.320, 218.827 379.530 C 220.847 381.741, 224.656 385.956, 227.292 388.898 L 232.084 394.247 237.292 393.557 C 240.156 393.178, 250.413 390.238, 260.085 387.025 C 271.422 383.258, 281.903 378.962, 289.585 374.934 C 296.138 371.497, 304.810 366.394, 308.856 363.593 C 312.902 360.792, 318.977 356.272, 322.356 353.550 C 325.735 350.827, 332.203 345.251, 336.728 341.157 C 341.254 337.064, 345.636 332.678, 346.467 331.410 C 347.298 330.142, 347.739 328.519, 347.447 327.802 C 347.155 327.086, 344.799 324.925, 342.211 323 C 339.623 321.075, 335.345 317.475, 332.703 315 C 330.062 312.525, 326.972 309.014, 325.836 307.197 C 324.701 305.381, 324.038 303.629, 324.362 303.304 C 324.687 302.979, 325.237 303.453, 325.583 304.357 C 325.930 305.261, 326.595 306, 327.060 306 C 327.526 306, 328.833 303.904, 329.967 301.343 C 331.100 298.781, 332.339 294.844, 332.721 292.593 C 333.102 290.342, 333.274 288.050, 333.102 287.500 C 332.930 286.950, 332.479 275.700, 332.099 262.500 C 331.485 241.165, 331.177 238, 329.323 234 C 328.177 231.525, 325.273 227.221, 322.869 224.436 C 320.466 221.651, 317.353 217.873, 315.952 216.040 L 313.403 212.707 307.452 215.247 C 304.178 216.644, 299.417 218.526, 296.871 219.430 C 294.325 220.334, 289.474 222.747, 286.091 224.792 C 282.709 226.837, 276.017 231.883, 271.220 236.005 C 266.424 240.127, 259.681 246.425, 256.237 250 C 251.816 254.588, 248.680 259.147, 245.577 265.500 C 243.158 270.450, 239.509 279.450, 237.467 285.500 C 235.425 291.550, 232.441 299.416, 230.836 302.980 C 229.231 306.543, 226.923 310.527, 225.709 311.832 C 224.494 313.137, 220.800 316.261, 217.500 318.773 C 214.200 321.286, 212.154 322.477, 212.953 321.421 C 213.751 320.364, 215.280 318.501, 216.349 317.280 L 218.293 315.060 213.196 315.663 L 208.100 316.267 201.900 310.383 C 198.490 307.148, 194.755 303.562, 193.600 302.416 C 192.445 301.270, 190.243 298.682, 188.707 296.666 L 185.915 293 176.257 293 C 169.792 293, 166.932 292.668, 167.604 291.996 C 168.156 291.444, 175.559 290.753, 184.054 290.461 C 192.549 290.170, 203.343 289.503, 208.039 288.980 C 212.735 288.456, 219.035 287.566, 222.039 287 C 225.127 286.419, 229.227 284.727, 231.474 283.105 C 233.659 281.529, 235.782 279.622, 236.191 278.869 C 236.600 278.116, 238.106 274.350, 239.537 270.500 C 240.968 266.650, 243.009 261.861, 244.072 259.858 C 245.136 257.855, 246.677 254.930, 247.497 253.358 C 248.317 251.786, 248.990 250.839, 248.994 251.253 C 248.997 251.667, 250.688 250.137, 252.750 247.852 C 254.813 245.568, 259.937 241.289, 264.138 238.344 C 268.339 235.400, 272.512 231.867, 273.411 230.495 C 274.310 229.123, 274.698 228.007, 274.273 228.015 C 273.848 228.023, 271.475 228.748, 269 229.626 C 266.167 230.631, 260.214 231.340, 252.928 231.541 C 242.548 231.827, 240.676 232.171, 234.758 234.882 C 231.129 236.544, 225.472 238.600, 222.186 239.452 C 218.900 240.303, 213.212 241, 209.547 241 C 205.881 241, 203.119 240.616, 203.410 240.146 C 203.700 239.677, 207.516 238.994, 211.891 238.629 C 216.265 238.265, 221.755 237.292, 224.090 236.468 C 226.426 235.644, 231.471 233.402, 235.303 231.485 C 241.919 228.175, 242.791 228, 252.667 228 C 261.923 228, 263.967 227.654, 271.282 224.851 C 275.802 223.119, 281.444 220.375, 283.820 218.755 C 287.698 216.109, 288.260 215.973, 289.320 217.423 C 290.398 218.897, 290.849 218.862, 294.462 217.019 C 296.641 215.909, 299.115 214.998, 299.961 214.996 C 300.808 214.994, 303.075 214.033, 305 212.860 C 306.925 211.687, 309.541 209.551, 310.814 208.113 C 312.087 206.676, 314.681 202.461, 316.579 198.746 C 318.650 194.692, 320.369 189.507, 320.879 185.775 C 321.347 182.355, 321.365 176.307, 320.920 172.335 C 320.474 168.363, 319.342 163.628, 318.403 161.813 C 316.858 158.825, 316.627 158.701, 315.955 160.506 C 315.546 161.603, 314.625 164.465, 313.908 166.866 C 313.190 169.267, 311.162 173.119, 309.401 175.426 C 307.640 177.732, 303.624 181.393, 300.478 183.560 C 295.008 187.327, 294.422 187.497, 287.128 187.433 C 281.209 187.381, 277.379 186.629, 270.036 184.077 C 262.903 181.598, 258.999 180.811, 254.190 180.883 C 250.681 180.936, 245.557 181.648, 242.805 182.465 C 240.052 183.283, 235.482 185.372, 232.650 187.107 C 229.817 188.842, 227.275 190.552, 227 190.906 C 226.725 191.260, 224.074 193.454, 221.109 195.783 C 216.939 199.057, 212.976 200.890, 203.609 203.873 C 192.475 207.419, 190.977 207.664, 185 206.919 C 181.425 206.473, 175.210 205.409, 171.189 204.555 C 167.168 203.701, 161.359 201.768, 158.280 200.261 C 155.201 198.753, 150.576 195.626, 148.001 193.311 C 144.503 190.166, 142.492 187.132, 140.042 181.301 C 137.295 174.765, 136.768 172.272, 136.793 165.930 C 136.811 161.447, 137.450 156.859, 138.361 154.680 C 139.206 152.656, 140.102 151, 140.351 151 C 140.600 151, 140.144 153.137, 139.337 155.750 C 138.345 158.960, 138.073 162.408, 138.500 166.386 C 138.846 169.624, 140.057 174.799, 141.190 177.886 C 142.656 181.883, 144.869 185.092, 148.874 189.027 C 151.968 192.067, 156.175 195.345, 158.223 196.311 C 160.270 197.277, 165.445 199.020, 169.723 200.184 C 174.771 201.558, 180.482 202.303, 186 202.308 C 190.675 202.312, 196.525 201.751, 199 201.062 C 201.475 200.372, 206.694 198.337, 210.597 196.540 C 214.500 194.742, 219.450 191.687, 221.597 189.751 C 223.744 187.814, 228.425 184.644, 232 182.706 C 235.575 180.768, 241.039 178.630, 244.141 177.956 C 247.360 177.257, 253.158 176.944, 257.641 177.227 C 262.670 177.545, 268.909 178.864, 274.969 180.890 C 282.525 183.417, 285.353 183.924, 288.969 183.401 C 291.461 183.040, 294.400 182.291, 295.500 181.736 C 296.600 181.181, 299.823 178.763, 302.662 176.362 C 305.501 173.961, 308.800 169.980, 309.993 167.515 C 311.472 164.458, 312.153 161.187, 312.134 157.224 C 312.116 153.510, 311.141 148.724, 309.430 143.957 C 307.959 139.856, 305.850 134.714, 304.745 132.531 C 303.640 130.348, 301.785 127.198, 300.623 125.531 C 299.462 123.864, 296.146 119.731, 293.256 116.346 C 290.365 112.962, 288 109.738, 288 109.183 C 288 108.527, 289.034 108.564, 290.950 109.287 C 293.427 110.222, 294.228 110.103, 295.950 108.545 C 297.077 107.525, 298 105.480, 298 104 C 298 102.520, 297.212 100.622, 296.250 99.780 C 295.288 98.939, 293.150 97.494, 291.500 96.570 L 288.500 94.889 291.789 95.427 C 293.598 95.723, 296.171 96.761, 297.508 97.733 C 299.053 98.857, 299.992 100.592, 300.087 102.500 C 300.170 104.150, 300.139 106.175, 300.019 107 C 299.898 107.825, 299.296 108.813, 298.679 109.196 C 298.062 109.578, 297.820 110.153, 298.140 110.474 C 298.461 110.794, 299.851 110.627, 301.230 110.102 C 302.837 109.492, 303.932 108.134, 304.278 106.325 C 304.575 104.771, 304.211 102.047, 303.469 100.271 C 302.727 98.495, 301.047 95.884, 299.735 94.470 C 298.424 93.056, 294.685 91.024, 291.426 89.954 L 285.500 88.009 290.986 88.485 C 294.083 88.754, 297.541 89.760, 298.928 90.796 C 300.279 91.804, 302.701 94.257, 304.311 96.245 C 306.499 98.949, 307.224 100.875, 307.182 103.878 C 307.152 106.087, 306.634 108.815, 306.033 109.939 C 305.431 111.064, 303.402 112.775, 301.524 113.742 L 298.109 115.500 302.369 122 C 304.712 125.575, 308.239 132.325, 310.207 137 C 312.175 141.675, 314.270 147.823, 314.863 150.662 C 315.456 153.502, 317.055 157.465, 318.415 159.470 C 319.776 161.476, 321.645 166.510, 322.567 170.658 C 323.683 175.671, 324.089 180.766, 323.779 185.850 C 323.393 192.187, 322.599 194.999, 319.156 202.230 C 316.870 207.031, 315 211.204, 315 211.502 C 315 211.801, 318.291 215.564, 322.314 219.865 C 326.336 224.167, 330.211 229.096, 330.925 230.818 C 331.910 233.197, 333.043 234.105, 335.629 234.590 C 337.502 234.942, 342.065 234.917, 345.768 234.536 C 349.470 234.155, 354.525 233.384, 357 232.822 C 359.475 232.260, 365.550 229.809, 370.500 227.376 C 375.450 224.943, 380.850 221.844, 382.500 220.491 L 385.500 218.031 385.836 203.765 C 386.021 195.919, 385.663 185.225, 385.041 180 C 384.419 174.775, 383.213 166.951, 382.361 162.613 C 381.509 158.275, 379.779 151.273, 378.516 147.054 C 377.253 142.835, 374.851 135.965, 373.178 131.787 C 371.506 127.609, 369.168 122.064, 367.984 119.465 C 366.800 116.866, 363.154 110.231, 359.883 104.721 C 356.611 99.211, 350.933 90.832, 347.266 86.102 C 343.598 81.371, 336.525 73.442, 331.548 68.483 C 326.572 63.523, 318.890 56.719, 314.478 53.362 C 310.066 50.004, 302.866 44.906, 298.478 42.032 C 294.090 39.158, 285.972 34.616, 280.438 31.938 C 274.903 29.261, 265.631 25.482, 259.832 23.542 C 254.033 21.602, 245.062 19.151, 239.895 18.096 C 234.728 17.041, 226.028 15.622, 220.562 14.942 C 214.038 14.130, 205.389 13.931, 195.386 14.363 C 187.006 14.724, 176.178 15.701, 171.325 16.534 C 166.471 17.366, 158.675 18.953, 154 20.059 C 149.325 21.166, 144.719 22.505, 143.764 23.036 C 142.809 23.566, 141.386 24, 140.602 24 C 139.818 24, 135.425 25.603, 130.839 27.562 C 126.252 29.521, 118.675 32.965, 114 35.215 C 109.325 37.466, 102.356 41.323, 98.512 43.787 C 94.669 46.251, 87.400 51.585, 82.358 55.640 C 77.316 59.695, 68.851 67.577, 63.547 73.155 C 58.146 78.836, 50.385 88.561, 45.906 95.263 C 41.507 101.844, 36.137 110.749, 33.974 115.052 C 31.810 119.355, 28.204 127.703, 25.961 133.602 C 23.718 139.502, 20.795 148.867, 19.466 154.414 C 18.137 159.961, 16.363 169.110, 15.525 174.743 C 14.679 180.423, 14.008 191.561, 14.018 199.743 C 14.028 207.860, 14.708 219.225, 15.529 224.999 C 16.349 230.774, 18.129 240.097, 19.483 245.717 C 20.838 251.337, 23.473 259.887, 25.339 264.717 C 27.206 269.548, 30.408 277.164, 32.457 281.643 C 35.707 288.751, 36.566 289.863, 39.215 290.393 C 40.884 290.727, 46.886 291, 52.552 291 C 61.539 291, 62.906 290.777, 63.267 289.250 C 63.554 288.032, 63.896 288.412, 64.389 290.500 C 64.780 292.150, 65.620 295.300, 66.257 297.500 C 66.895 299.700, 68.492 304.200, 69.807 307.500 C 71.122 310.800, 73.689 315.300, 75.510 317.500 C 77.331 319.700, 80.549 323.334, 82.661 325.575 C 84.772 327.816, 91.450 333.916, 97.500 339.131 C 103.550 344.345, 111.278 350.724, 114.674 353.306 C 118.070 355.888, 121.295 358, 121.841 358 C 122.387 358, 122.983 358.352, 123.167 358.783 C 123.350 359.213, 126.425 361.386, 130 363.611 C 133.575 365.836, 138.937 368.972, 141.915 370.578 C 146.886 373.260, 148.165 373.500, 157.488 373.500 C 165.671 373.500, 168.410 373.111, 171.573 371.500 C 173.733 370.400, 175.725 369.275, 176 369 C 176.275 368.725, 178.377 367.045, 180.672 365.266 C 182.966 363.487, 185.030 362.362, 185.258 362.766 C 185.486 363.170, 185.534 362.934, 185.364 362.241 C 185.195 361.549, 185.533 359.749, 186.116 358.241 C 186.700 356.734, 187.343 354.242, 187.547 352.705 C 187.750 351.168, 187.507 348.835, 187.008 347.520 C 186.508 346.206, 183.939 342.691, 181.300 339.709 C 178.660 336.727, 173.800 331.258, 170.500 327.556 C 167.200 323.854, 162.813 318.952, 160.751 316.662 C 158.690 314.373, 157.002 312.163, 157.001 311.750 C 157.001 311.337, 156.306 311, 155.458 311 C 154.610 311, 153.191 311.563, 152.306 312.250 C 151.421 312.938, 148.983 315.188, 146.888 317.250 C 144.794 319.313, 142.821 321, 142.505 321 C 142.188 321, 142.461 319.988, 143.111 318.750 C 143.761 317.512, 145.605 314.990, 147.208 313.145 C 148.812 311.300, 149.846 309.513, 149.507 309.174 C 149.168 308.835, 148.578 309.047, 148.196 309.645 C 147.813 310.242, 145.634 311.677, 143.354 312.833 C 141.074 313.989, 138.597 315.512, 137.850 316.217 C 137.103 316.923, 135.602 318.175, 134.513 319 C 132.551 320.487, 132.550 320.475, 134.421 317.500 C 135.458 315.850, 137.425 313.600, 138.792 312.500 C 140.159 311.400, 142.184 309.788, 143.292 308.917 C 144.697 307.812, 144.882 307.308, 143.903 307.251 C 143.131 307.206, 139.125 306.443, 135 305.555 C 130.875 304.668, 124.317 302.798, 120.426 301.401 C 116.535 300.004, 111.810 297.500, 109.926 295.837 C 108.042 294.174, 102.402 290.801, 97.393 288.340 C 91.893 285.638, 86.051 283.563, 82.644 283.101 C 79.541 282.680, 76.701 282.035, 76.334 281.667 C 75.967 281.300, 77.222 281, 79.123 281 C 81.024 281, 85.187 281.679, 88.374 282.509 C 91.561 283.339, 96.619 285.139, 99.614 286.509 C 102.609 287.879, 105.325 289, 105.649 289 C 105.973 289, 108.772 290.538, 111.869 292.417 C 114.966 294.297, 120.557 296.984, 124.293 298.388 C 128.028 299.793, 133.203 301.215, 135.793 301.548 C 138.382 301.882, 142.075 302.282, 144 302.439 C 145.925 302.595, 148.738 302.013, 150.250 301.146 C 151.762 300.278, 153 299.273, 153 298.912 C 153 298.550, 152.079 296.172, 150.953 293.627 C 149.197 289.656, 148.494 289, 146.002 289 C 144.405 289, 140.714 288.502, 137.799 287.893 C 134.885 287.284, 129.394 285.438, 125.597 283.790 C 121.801 282.142, 116.401 279.400, 113.597 277.696 C 110.794 275.993, 106.840 273.286, 104.812 271.682 C 102.783 270.077, 100.898 268.177, 100.622 267.458 C 100.347 266.739, 102.991 268.158, 106.499 270.610 C 110.007 273.062, 117.087 277.063, 122.234 279.501 C 127.380 281.939, 134.045 284.406, 137.045 284.984 C 140.045 285.561, 144.863 286.508, 147.750 287.089 C 150.825 287.706, 153 288.678, 153 289.433 C 153 290.143, 154.361 293.726, 156.025 297.396 C 157.772 301.247, 161.809 307.230, 165.573 311.546 C 169.160 315.659, 173.374 321.832, 174.938 325.262 C 176.502 328.693, 179.617 333.975, 181.861 337 C 184.104 340.025, 186.506 343.153, 187.198 343.952 C 188.250 345.166, 188.592 344.716, 189.287 341.202 C 189.744 338.891, 190.541 337, 191.059 337 C 191.589 337, 191.944 341.062, 191.871 346.299 C 191.769 353.626, 192.297 357.530, 194.362 364.707 C 195.803 369.717, 198.001 375.770, 199.245 378.158 C 200.854 381.248, 202.803 383.159, 206.003 384.785 C 208.476 386.042, 213.425 388.389, 217 389.999 L 223.500 392.927 200 392.512 C 181.466 392.185, 174.193 391.650, 165.583 389.981 C 159.578 388.816, 147.925 385.658, 139.687 382.962 C 131.448 380.267, 119.711 375.519, 113.604 372.412 C 107.497 369.305, 98.225 363.972, 93 360.560 C 87.775 357.149, 81.250 352.376, 78.500 349.953 C 75.750 347.531, 69.214 341.263, 63.975 336.025 C 58.737 330.786, 52.534 324.316, 50.191 321.648 C 47.848 318.979, 43.073 312.454, 39.579 307.148 C 36.086 301.841, 30.686 292.550, 27.580 286.500 C 24.429 280.362, 19.756 268.786, 17.008 260.310 C 14.300 251.956, 11.092 240.031, 9.880 233.810 C 8.009 224.200, 7.678 219.119, 7.684 200 C 7.689 180.982, 8.028 175.760, 9.874 166.254 C 11.076 160.069, 14.108 148.594, 16.613 140.754 C 19.118 132.915, 23.880 121.100, 27.194 114.500 C 30.508 107.900, 36.038 98.225, 39.483 93 C 42.928 87.775, 47.702 81.250, 50.093 78.500 C 52.483 75.750, 58.728 69.214, 63.970 63.975 C 69.211 58.737, 75.684 52.534, 78.352 50.191 C 81.021 47.848, 87.546 43.073, 92.852 39.581 C 98.159 36.089, 107.450 30.722, 113.500 27.656 C 119.550 24.589, 130.575 20.023, 138 17.508 C 145.425 14.993, 157.125 11.773, 164 10.352 C 175.394 7.997, 178.579 7.770, 200 7.786 C 220.023 7.802, 225.115 8.125, 234.417 9.971 C 240.422 11.162, 251.939 14.298, 260.012 16.939 C 268.085 19.581, 279.822 24.325, 286.095 27.483 C 292.368 30.641, 301.775 36.019, 307 39.434 C 312.225 42.848, 318.750 47.624, 321.500 50.047 C 324.250 52.469, 330.786 58.737, 336.025 63.975 C 341.263 69.214, 347.466 75.684, 349.809 78.352 C 352.152 81.021, 356.930 87.546, 360.427 92.852 C 363.924 98.159, 369.496 107.900, 372.809 114.500 C 376.121 121.100, 380.875 132.894, 383.372 140.709 C 385.869 148.524, 388.879 159.774, 390.060 165.709 C 391.897 174.938, 392.204 179.901, 392.181 200 C 392.158 219.812, 391.821 225.194, 390.033 234.291 C 388.866 240.226, 385.869 251.476, 383.372 259.291 C 380.875 267.106, 376.121 278.900, 372.809 285.500 C 369.496 292.100, 363.921 301.846, 360.421 307.157 C 356.921 312.469, 352.694 318.306, 351.028 320.130 C 349.363 321.954, 348 323.769, 348 324.164 C 348 324.559, 348.518 325.202, 349.151 325.594 C 349.825 326.010, 351.748 324.686, 353.786 322.403 C 355.701 320.256, 359.843 314.675, 362.989 310 C 366.135 305.325, 371.691 295.650, 375.336 288.500 C 378.981 281.350, 383.133 271.900, 384.564 267.500 C 385.995 263.100, 388.255 255.324, 389.587 250.220 C 390.919 245.115, 392.281 238.140, 392.612 234.720 C 392.944 231.299, 393.377 228.229, 393.575 227.898 C 393.773 227.567, 394.384 222.392, 394.934 216.398 C 395.563 209.538, 395.611 198.461, 395.064 186.500 C 394.587 176.050, 393.446 163.900, 392.529 159.500 C 391.612 155.100, 388.631 144.837, 385.905 136.694 C 383.075 128.240, 378.316 116.872, 374.813 110.194 C 371.438 103.762, 366.202 94.900, 363.176 90.500 C 360.151 86.100, 354.868 79.125, 351.436 75 C 348.005 70.875, 341.214 63.675, 336.345 59 C 331.477 54.325, 325.858 49.073, 323.860 47.329 C 321.861 45.584, 316.013 41.253, 310.863 37.703 C 305.713 34.153, 295.650 28.292, 288.500 24.679 C 281.350 21.067, 270.100 16.283, 263.500 14.048 C 256.900 11.814, 246.550 8.824, 240.500 7.403 C 230.528 5.062, 227.165 4.789, 204.500 4.479 C 190.750 4.292, 176.565 4.510, 172.979 4.964 M 181.947 47.465 C 178.893 48.234, 172.904 50.251, 168.638 51.945 C 164.372 53.640, 158.545 56.227, 155.691 57.695 C 152.836 59.163, 147.937 60.680, 144.804 61.067 C 141.671 61.453, 136.953 62.812, 134.319 64.087 C 131.685 65.362, 125.916 69.876, 121.498 74.117 C 117.080 78.359, 110.656 85.917, 107.222 90.914 C 103.788 95.911, 101.474 100, 102.080 100 C 102.685 100, 104.228 98.763, 105.508 97.250 C 106.788 95.737, 110.165 91.656, 113.013 88.179 C 115.861 84.702, 118.434 82.101, 118.731 82.398 C 119.028 82.695, 118.535 84.061, 117.635 85.434 C 116.736 86.806, 116 88.456, 116 89.100 C 116 89.743, 117.005 88.972, 118.233 87.385 C 119.461 85.798, 122.048 82.751, 123.983 80.612 C 125.917 78.474, 130.085 75.492, 133.245 73.985 C 137.773 71.825, 139.945 71.352, 143.495 71.752 C 146.252 72.063, 148 71.860, 148 71.228 C 148 70.661, 146.559 69.284, 144.797 68.168 L 141.594 66.140 144.290 65.463 C 145.773 65.091, 146.738 64.385, 146.434 63.893 C 146.130 63.402, 147.371 62.996, 149.191 62.991 C 151.011 62.986, 154.750 61.875, 157.500 60.522 C 160.250 59.169, 162.985 58.048, 163.578 58.031 C 164.170 58.014, 167.350 56.905, 170.644 55.566 C 173.938 54.228, 178.403 52.867, 180.567 52.542 C 182.730 52.217, 187.958 51.463, 192.184 50.866 C 198.935 49.914, 201.104 50.047, 210.062 51.965 C 215.669 53.165, 223.988 55.364, 228.549 56.850 C 233.110 58.337, 236.622 59.197, 236.353 58.762 C 236.084 58.327, 234.134 57.089, 232.020 56.010 C 229.905 54.931, 225.317 52.973, 221.823 51.658 C 218.329 50.343, 213.002 48.721, 209.985 48.054 C 206.968 47.387, 200.675 46.667, 196 46.454 C 190.743 46.214, 185.381 46.600, 181.947 47.465 M 245.500 60 C 244.104 60.600, 243.953 60.903, 245 61.004 C 245.825 61.084, 247.608 61.352, 248.961 61.600 C 250.315 61.849, 252.115 61.767, 252.961 61.419 C 254.236 60.894, 254.157 60.644, 252.500 59.963 C 251.400 59.511, 249.825 59.141, 249 59.141 C 248.175 59.141, 246.600 59.527, 245.500 60 M 257.459 62.067 C 257.096 62.653, 256.957 63.247, 257.150 63.385 C 257.342 63.524, 259.637 64.956, 262.248 66.569 C 264.860 68.181, 266.997 70.007, 266.998 70.628 C 266.999 71.248, 266.325 72.315, 265.500 73 C 264.675 73.685, 264 74.730, 264 75.322 C 264 76.024, 264.418 75.982, 265.200 75.200 C 265.860 74.540, 267.380 74, 268.578 74 C 269.775 74, 271.309 74.668, 271.986 75.483 C 273.006 76.712, 272.778 77.134, 270.661 77.939 C 269.255 78.473, 267.453 79.943, 266.656 81.205 C 265.860 82.467, 264.888 84.569, 264.497 85.875 C 264.106 87.181, 264.190 88.531, 264.683 88.875 C 265.176 89.219, 266.094 91.224, 266.721 93.331 C 267.748 96.777, 267.694 97.090, 266.181 96.452 C 265.257 96.062, 263.488 95.523, 262.250 95.255 C 261.012 94.986, 260 95.239, 260 95.816 C 260 96.393, 260.912 97.155, 262.027 97.508 C 263.141 97.862, 264.783 99.266, 265.676 100.628 C 267.202 102.958, 267.172 103.277, 265.159 105.999 C 263.982 107.591, 263.391 109.124, 263.846 109.405 C 264.302 109.686, 265.647 109.235, 266.837 108.402 C 268.298 107.378, 269 105.834, 269 103.643 C 269 101.859, 268.438 99.809, 267.750 99.086 C 267.003 98.301, 267.874 98.466, 269.913 99.496 C 272.193 100.648, 274.626 101.045, 277.244 100.694 C 280.869 100.208, 281.239 100.387, 282.179 103.084 C 282.738 104.688, 283.602 106, 284.098 106 C 284.594 106, 285 105.826, 285 105.614 C 285 105.402, 284.349 103.974, 283.553 102.440 C 282.757 100.906, 282.119 97.029, 282.134 93.825 C 282.149 90.621, 282.593 88, 283.120 88 C 283.647 88, 283.499 87.373, 282.789 86.607 C 281.695 85.425, 281.399 85.480, 280.833 86.969 C 280.467 87.934, 279.223 88.970, 278.070 89.271 C 276.638 89.646, 275.644 89.203, 274.932 87.872 C 274.358 86.801, 274.169 85.041, 274.512 83.962 C 274.855 82.883, 275.914 82, 276.867 82 C 277.820 82, 279.140 82.540, 279.800 83.200 C 280.460 83.860, 281 84.054, 281 83.630 C 281 83.207, 279.684 80.979, 278.075 78.680 C 276.467 76.381, 272.979 72.188, 270.325 69.363 C 267.671 66.537, 264.060 63.500, 262.300 62.613 C 260.539 61.726, 258.879 61, 258.609 61 C 258.339 61, 257.821 61.480, 257.459 62.067 M 205.477 74.015 C 202.714 74.406, 197.960 75.451, 194.913 76.337 C 191.866 77.223, 187.377 78.838, 184.937 79.926 C 182.210 81.142, 176.846 85.586, 171.020 91.453 C 165.806 96.704, 161.915 101, 162.373 101 C 162.832 101, 167.463 96.972, 172.665 92.049 C 180.835 84.317, 183.237 82.654, 190.311 79.832 C 198.283 76.653, 198.898 76.566, 213.500 76.568 C 226.120 76.570, 229.492 76.905, 234.755 78.682 C 238.195 79.843, 241.260 80.389, 241.565 79.895 C 241.870 79.401, 240.856 78.512, 239.310 77.920 C 237.765 77.329, 234.025 76.238, 231 75.497 C 227.975 74.757, 222.125 73.960, 218 73.727 C 213.875 73.494, 208.239 73.624, 205.477 74.015 M 246.550 81.888 C 247.072 82.376, 248.512 83.081, 249.750 83.455 C 250.988 83.829, 252 83.707, 252 83.184 C 252 82.661, 250.988 81.962, 249.750 81.630 C 248.512 81.299, 247.072 81.021, 246.550 81.014 C 245.950 81.005, 245.950 81.327, 246.550 81.888 M 127.376 87.086 C 125.657 87.584, 123.690 88.669, 123.003 89.496 C 122.317 90.323, 121.984 91, 122.263 91 C 122.543 91, 124.060 90.328, 125.636 89.506 C 127.211 88.685, 129.530 88.010, 130.790 88.006 C 132.049 88.003, 134.753 88.854, 136.798 89.897 C 138.946 90.993, 141.439 93.436, 142.702 95.683 C 143.904 97.822, 145.336 102.360, 145.885 105.768 C 146.617 110.315, 146.555 113.098, 145.651 116.220 C 144.802 119.153, 143.376 121.177, 141.062 122.737 C 139.201 123.991, 136.181 125, 134.286 125 C 132.407 125, 129.886 124.492, 128.684 123.872 C 127.483 123.251, 125.528 121.564, 124.340 120.122 C 123.151 118.680, 121.832 117.845, 121.407 118.266 C 120.982 118.688, 121.536 120.263, 122.638 121.766 C 123.740 123.270, 126.185 125.287, 128.071 126.248 C 129.957 127.210, 132.850 127.997, 134.500 127.997 C 136.150 127.997, 139.066 127.210, 140.980 126.248 C 142.894 125.287, 145.482 122.971, 146.730 121.102 C 148.520 118.423, 148.999 116.308, 148.994 111.102 C 148.991 107.471, 148.537 102.872, 147.984 100.882 C 147.431 98.893, 145.968 95.743, 144.731 93.882 C 143.495 92.022, 140.480 89.487, 138.030 88.250 C 135.580 87.013, 132.884 86.041, 132.038 86.090 C 131.192 86.140, 129.094 86.588, 127.376 87.086 M 269.534 88.945 C 269.175 89.525, 269.160 90.450, 269.500 91 C 269.840 91.550, 271.024 92, 272.132 92 C 273.507 92, 274.040 91.448, 273.812 90.261 C 273.628 89.305, 272.737 88.380, 271.832 88.206 C 270.927 88.032, 269.893 88.364, 269.534 88.945 M 276 92.500 C 276 93.325, 276.450 94, 277 94 C 277.550 94, 278 93.325, 278 92.500 C 278 91.675, 277.550 91, 277 91 C 276.450 91, 276 91.675, 276 92.500 M 127.020 97.284 C 125.656 97.975, 123.949 99.656, 123.227 101.020 C 122.434 102.520, 122.069 105.642, 122.304 108.918 C 122.632 113.488, 123.188 114.779, 125.862 117.168 C 128.084 119.154, 130.096 120, 132.593 120 C 135.195 120, 136.941 119.213, 139.077 117.077 C 141.415 114.739, 141.997 113.288, 141.985 109.827 C 141.976 107.447, 141.575 104.878, 141.094 104.118 C 140.401 103.023, 140.085 103.157, 139.576 104.760 C 139.223 105.873, 138.113 106.999, 137.109 107.261 C 136.105 107.524, 134.545 107.325, 133.642 106.820 C 132.739 106.314, 132 105.027, 132 103.959 C 132 102.891, 132.900 101.455, 134 100.768 C 135.100 100.081, 136 99.249, 136 98.920 C 136 98.591, 134.854 97.799, 133.453 97.161 C 132.052 96.522, 130.590 96.007, 130.203 96.015 C 129.816 96.023, 128.384 96.594, 127.020 97.284 M 192 98.217 C 190.625 98.813, 187.700 100.119, 185.500 101.120 C 183.300 102.122, 178.928 105.414, 175.785 108.436 C 172.642 111.458, 168.292 115.053, 166.119 116.425 C 163.946 117.797, 161.858 119.420, 161.480 120.033 C 161.101 120.646, 162.750 120.148, 165.145 118.926 C 167.540 117.704, 172.425 113.906, 176 110.485 C 179.575 107.064, 183.622 103.680, 184.994 102.966 C 186.366 102.252, 189.486 101.159, 191.927 100.536 C 194.368 99.913, 196.546 98.863, 196.766 98.202 C 196.986 97.541, 196.567 97.030, 195.833 97.068 C 195.100 97.105, 193.375 97.622, 192 98.217 M 78.500 106.227 C 73 107.340, 66.189 108.867, 63.364 109.620 C 59.876 110.550, 56.608 112.446, 53.181 115.527 C 50.380 118.045, 47.633 121.581, 47.010 123.470 C 46.391 125.345, 46.184 128.588, 46.549 130.688 C 46.913 132.784, 48.274 136.156, 49.573 138.180 C 50.872 140.204, 53.873 143.192, 56.240 144.821 C 58.608 146.450, 62.171 148.463, 64.159 149.293 C 67.072 150.510, 69.361 150.626, 75.950 149.889 C 80.448 149.385, 85.720 148.308, 87.668 147.494 C 90.957 146.120, 91.165 146.139, 90.602 147.758 C 90.027 149.409, 90.065 149.410, 91.346 147.766 C 92.090 146.812, 92.991 146.324, 93.349 146.682 C 93.707 147.040, 94 146.808, 94 146.167 C 94 145.525, 94.675 145, 95.500 145 C 96.325 145, 97 145.440, 97 145.977 C 97 146.515, 95.866 149.967, 94.480 153.648 C 93.095 157.330, 91.594 160.828, 91.146 161.421 C 90.697 162.015, 89.776 165.079, 89.098 168.232 C 88.419 171.385, 87.140 175.417, 86.253 177.194 C 85.069 179.569, 84.652 183.214, 84.680 190.970 C 84.705 197.893, 85.312 203.576, 86.448 207.508 C 87.400 210.804, 88.884 214.287, 89.745 215.250 C 90.606 216.213, 91.684 217, 92.140 217 C 92.597 217, 91.988 214.637, 90.786 211.750 C 88.904 207.230, 88.594 204.554, 88.550 192.500 C 88.506 180.285, 88.804 177.607, 90.886 171.500 C 92.199 167.650, 93.869 163.318, 94.598 161.873 C 95.328 160.428, 96.805 155.928, 97.881 151.873 C 98.958 147.818, 99.965 142.700, 100.120 140.500 C 100.326 137.578, 100.042 136.580, 99.066 136.795 C 98.331 136.957, 95.750 138.452, 93.331 140.116 C 90.912 141.780, 87.036 143.966, 84.717 144.973 C 82.397 145.980, 77.799 147.104, 74.498 147.471 C 70.951 147.866, 67.350 147.703, 65.695 147.074 C 64.154 146.488, 60.705 144.576, 58.030 142.825 C 55.355 141.074, 52.229 137.973, 51.083 135.934 C 49.928 133.879, 49 130.429, 49 128.191 C 49 125.260, 49.753 123.242, 51.750 120.827 C 53.263 118.997, 55.400 116.723, 56.500 115.773 C 57.600 114.823, 60.879 113.136, 63.788 112.023 C 66.696 110.910, 70.136 110, 71.432 110 C 72.729 110, 76.874 109.058, 80.645 107.906 C 84.415 106.755, 87.927 105.405, 88.450 104.906 C 88.973 104.408, 89.198 104.046, 88.950 104.101 C 88.703 104.157, 84 105.114, 78.500 106.227 M 193.035 105.934 C 192.466 106.998, 192 109.232, 192 110.899 C 192 112.872, 192.675 114.291, 193.934 114.965 C 194.998 115.534, 196.573 116, 197.434 116 C 198.295 116, 199 115.602, 199 115.117 C 199 114.631, 198.168 114.016, 197.151 113.750 C 196.135 113.484, 195.059 112.335, 194.762 111.197 C 194.464 110.059, 194.819 107.974, 195.551 106.564 C 196.675 104.397, 196.664 104, 195.476 104 C 194.703 104, 193.605 104.870, 193.035 105.934 M 128.176 108.224 C 127.529 108.871, 127 109.937, 127 110.593 C 127 111.249, 127.716 112.061, 128.590 112.396 C 129.465 112.732, 130.590 112.753, 131.090 112.444 C 131.591 112.135, 132 111.289, 132 110.563 C 132 109.838, 131.404 108.750, 130.676 108.146 C 129.710 107.344, 129.035 107.365, 128.176 108.224 M 134 112 C 134 112.550, 134.675 113, 135.500 113 C 136.325 113, 137 112.550, 137 112 C 137 111.450, 136.325 111, 135.500 111 C 134.675 111, 134 111.450, 134 112 M 74.432 115.890 C 74.734 116.379, 78.023 117.371, 81.741 118.094 C 87.065 119.130, 89.220 120.117, 91.888 122.743 L 95.277 126.077 92.910 128.595 C 91.609 129.981, 88.284 132.405, 85.522 133.983 C 82.760 135.561, 78.424 137.373, 75.886 138.011 C 72.555 138.847, 70.206 138.875, 67.442 138.112 C 65.336 137.530, 63.433 137.234, 63.213 137.453 C 62.994 137.673, 64.184 138.561, 65.857 139.426 C 67.531 140.292, 70.043 141, 71.440 141 C 72.836 141, 76.189 140.160, 78.892 139.133 C 81.594 138.106, 86.774 135.069, 90.402 132.383 C 94.070 129.669, 97 126.738, 97 125.785 C 97 124.841, 95.643 122.524, 93.984 120.635 C 91.480 117.783, 89.896 117.013, 84.652 116.100 C 81.178 115.495, 77.334 115, 76.109 115 C 74.884 115, 74.129 115.400, 74.432 115.890 M 128.575 136.758 C 128.259 137.074, 128 137.708, 128 138.167 C 128 138.625, 130.287 139, 133.083 139 C 136.705 139, 138.047 138.641, 137.750 137.750 C 137.521 137.060, 135.501 136.429, 133.242 136.341 C 130.992 136.254, 128.892 136.442, 128.575 136.758 M 64.653 164.687 C 63.249 168.984, 61.389 175.200, 60.522 178.500 C 59.654 181.800, 58.520 191.025, 58.002 199 C 57.484 206.975, 56.365 215.975, 55.516 219 C 54.666 222.025, 52.857 229.225, 51.495 235 C 50.133 240.775, 49.014 248.467, 49.009 252.093 C 49.004 256.113, 49.788 260.993, 51.019 264.593 C 52.130 267.842, 53.675 271.850, 54.453 273.500 C 55.231 275.150, 56.743 277.400, 57.811 278.500 C 58.880 279.600, 60.768 281.333, 62.006 282.351 C 63.751 283.785, 64.434 283.915, 65.044 282.929 C 65.539 282.127, 64.456 279.964, 62.115 277.079 C 60.072 274.560, 57.558 270.700, 56.529 268.500 C 55.500 266.300, 54.475 263.825, 54.252 263 C 54.029 262.175, 53.401 258.599, 52.855 255.052 C 52.165 250.564, 52.205 246.614, 52.987 242.052 C 53.604 238.449, 55.166 232.125, 56.456 228 C 57.747 223.875, 59.085 218.719, 59.429 216.542 C 59.774 214.365, 60.424 212.340, 60.876 212.042 C 61.327 211.744, 61.776 209.051, 61.873 206.058 C 61.971 203.065, 62.264 200.403, 62.525 200.142 C 62.786 199.880, 63 201.321, 63 203.343 C 63 205.364, 63.937 211.177, 65.083 216.259 C 66.228 221.342, 68.280 229.100, 69.643 233.500 C 71.005 237.900, 73.270 242.850, 74.674 244.500 C 76.079 246.150, 76.982 246.825, 76.682 246 C 76.382 245.175, 74.782 241.053, 73.127 236.839 C 71.472 232.626, 69.333 225.651, 68.374 221.339 C 67.118 215.691, 66.659 209.448, 66.733 199 C 66.801 189.399, 67.387 182.180, 68.467 177.632 C 69.364 173.855, 69.862 170.528, 69.573 170.239 C 69.284 169.950, 68.720 170.566, 68.320 171.607 C 67.667 173.304, 67.531 173.241, 66.999 171 C 66.673 169.625, 66.740 166.037, 67.147 163.027 C 67.555 160.017, 67.735 157.401, 67.547 157.214 C 67.360 157.026, 66.057 160.389, 64.653 164.687 M 78.079 176.668 C 78.036 177.311, 77.741 178.661, 77.424 179.668 C 76.877 181.409, 76.906 181.412, 77.995 179.712 C 78.626 178.729, 78.920 177.379, 78.650 176.712 C 78.295 175.837, 78.136 175.825, 78.079 176.668 M 75.531 184.750 C 75.156 185.713, 74.498 190.976, 74.069 196.447 C 73.640 201.918, 73.662 210.018, 74.119 214.447 C 74.576 218.876, 75.632 225.095, 76.466 228.267 C 77.301 231.439, 79.120 236.276, 80.509 239.017 C 81.897 241.758, 83.476 244, 84.017 244 C 84.558 244, 85 243.801, 85 243.557 C 85 243.314, 84.118 241.620, 83.040 239.793 C 81.962 237.966, 80.203 233.553, 79.131 229.986 C 78.059 226.419, 76.774 219.225, 76.276 214 C 75.778 208.775, 75.434 201.125, 75.511 197 C 75.588 192.875, 75.991 188.037, 76.405 186.250 C 76.820 184.463, 76.946 183, 76.686 183 C 76.427 183, 75.907 183.787, 75.531 184.750 M 106 218.929 C 106 219.439, 106.675 220.532, 107.500 221.357 C 108.325 222.182, 109 223.060, 109 223.307 C 109 223.555, 110.578 226.378, 112.507 229.581 C 114.435 232.784, 117.248 236.709, 118.757 238.304 C 120.265 239.899, 124.200 243.138, 127.500 245.502 C 130.800 247.866, 137.397 251.598, 142.161 253.794 C 146.924 255.991, 153.899 258.564, 157.661 259.511 C 161.422 260.459, 168.505 261.294, 173.401 261.367 C 179.492 261.458, 182.432 261.124, 182.714 260.309 C 182.959 259.602, 181.374 258.662, 178.814 257.995 C 176.441 257.377, 173.118 256.450, 171.429 255.935 C 169.740 255.421, 167.661 255, 166.809 255 C 165.957 255, 162.407 254.088, 158.919 252.974 C 155.431 251.860, 151.934 251.195, 151.147 251.497 C 149.921 251.968, 149.915 251.802, 151.109 250.331 C 152.103 249.106, 152.133 248.837, 151.215 249.389 C 150.493 249.823, 147.424 249.161, 144.215 247.878 C 141.072 246.622, 137.825 245.069, 137 244.428 C 136.175 243.786, 134.875 243.486, 134.111 243.760 C 133.347 244.035, 132.989 243.827, 133.315 243.299 C 133.642 242.770, 132.355 241.728, 130.455 240.982 C 128.555 240.237, 127 239.333, 127 238.974 C 127 238.615, 125.987 237.849, 124.750 237.271 C 123.513 236.694, 120.784 234.740, 118.687 232.930 C 116.589 231.119, 113.037 227.019, 110.792 223.819 C 108.547 220.618, 106.550 218, 106.355 218 C 106.160 218, 106 218.418, 106 218.929 M 300.500 221.960 C 298.850 222.398, 296.375 223.269, 295 223.894 C 292.936 224.833, 293.372 224.897, 297.500 224.265 C 300.250 223.844, 305.549 223.533, 309.275 223.574 C 313.685 223.622, 315.926 223.273, 315.695 222.574 C 315.501 221.983, 312.677 221.424, 309.421 221.331 C 306.164 221.239, 302.150 221.521, 300.500 221.960 M 121.790 257.897 C 123.600 259.446, 128.775 262.534, 133.290 264.759 C 137.806 266.985, 146.450 270.050, 152.500 271.570 C 160.369 273.547, 165.876 274.315, 171.848 274.269 C 176.506 274.233, 180.683 273.717, 181.298 273.102 C 182.101 272.299, 180.700 272, 176.142 272 C 172.701 272, 165.298 271.061, 159.692 269.914 C 154.087 268.766, 145.319 266.453, 140.209 264.774 C 135.099 263.094, 128.407 260.208, 125.338 258.360 C 122.269 256.512, 119.475 255.018, 119.129 255.041 C 118.783 255.063, 119.981 256.348, 121.790 257.897 M 74.964 265.950 C 76.120 267.572, 79.188 270.732, 81.782 272.971 C 84.377 275.210, 88.844 278.201, 91.709 279.618 C 94.573 281.035, 97.433 282.022, 98.064 281.812 C 98.695 281.602, 96.883 279.983, 94.039 278.215 C 91.194 276.447, 88.463 275, 87.970 275 C 87.477 275, 84.187 272.300, 80.659 269 C 77.131 265.700, 73.934 263, 73.554 263 C 73.175 263, 73.809 264.327, 74.964 265.950 M 203 263.822 C 203 264.392, 205.588 265.404, 208.750 266.071 C 211.912 266.738, 218.755 267.225, 223.955 267.152 C 230.920 267.054, 233.807 266.621, 234.921 265.508 C 236.269 264.159, 234.818 264.003, 221.452 264.057 C 213.213 264.091, 205.691 263.819, 204.736 263.452 C 203.776 263.084, 203 263.249, 203 263.822 M 291.398 277.835 C 291.651 278.245, 290.203 278.648, 288.179 278.731 C 286.156 278.814, 282.363 279.830, 279.750 280.988 C 277.137 282.146, 275 283.286, 275 283.522 C 275 283.758, 276.238 283.498, 277.750 282.946 C 279.262 282.393, 281.175 281.677, 282 281.355 C 282.825 281.033, 285.300 280.485, 287.500 280.137 C 289.700 279.790, 296.592 279.539, 302.815 279.579 C 310.199 279.627, 313.558 279.332, 312.484 278.731 C 311.579 278.225, 306.361 277.648, 300.888 277.450 C 295.415 277.251, 291.145 277.425, 291.398 277.835 M 162 291 C 162 291.550, 162.702 292, 163.559 292 C 164.416 292, 164.840 291.550, 164.500 291 C 164.160 290.450, 163.459 290, 162.941 290 C 162.423 290, 162 290.450, 162 291 M 195.850 293.918 L 190.200 294.500 192.850 297.568 C 194.307 299.255, 197.188 301.654, 199.250 302.899 C 201.313 304.144, 203 305.529, 203 305.976 C 203 306.423, 204.306 308.186, 205.901 309.894 C 208.187 312.341, 209.629 313, 212.701 313 C 214.846 313, 217.092 313.492, 217.693 314.093 C 218.484 314.884, 219.461 314.744, 221.228 313.586 C 222.570 312.707, 224.176 310.977, 224.795 309.743 C 225.414 308.510, 226.051 306.655, 226.210 305.622 C 226.435 304.164, 225.381 303.370, 221.500 302.078 C 218.750 301.163, 214.328 298.745, 211.673 296.707 C 208.551 294.309, 205.903 293.059, 204.173 293.168 C 202.703 293.261, 198.957 293.598, 195.850 293.918 M 200.750 318.080 C 199.787 318.641, 199 319.517, 199 320.028 C 199 320.544, 200.112 320.451, 201.500 319.818 C 202.875 319.192, 204 318.301, 204 317.839 C 204 317.378, 203.662 317.014, 203.250 317.030 C 202.838 317.047, 201.713 317.519, 200.750 318.080 M 152.397 322.593 C 151.571 324.569, 151.031 326.546, 151.198 326.987 C 151.364 327.427, 152.515 325.810, 153.756 323.393 C 154.997 320.977, 155.536 319, 154.955 319 C 154.374 319, 153.222 320.617, 152.397 322.593" stroke="none" fill="#b39789" fill-rule="evenodd"/></svg>