<svg width="40" height="40" viewBox="0 0 40 40" fill="none" xmlns="http://www.w3.org/2000/svg">
<path d="M24.084 24.852C16.52375 27.12 10.26979 30.428 6.355063 34.304L6.182225 34.476C7.223213 35.46 8.364675 36.34 9.598600 37.088L9.863863 36.764C10.933 35.46 12.078463 34.2 13.272125 33.012C16.47550 29.824 20.141125 27.064 24.088 24.848L24.084 24.852Z" fill="#F5F5F5"/>
<path d="M0.00061035 21.492C0.302044 25.536 1.805263 29.244 4.164563 32.26L4.273075 32.152C6.696688 29.764 9.851813 27.592 13.658 25.7C16.994 24.04 20.824250 22.616 24.952125 21.492H0.00061035Z" fill="#F5F5F5"/>
<path d="M15.38625 4.872C22.15075 11.604 30.6635 16.056 40.0002 17.744C38.87475 7.764 30.37013 0 20.03663 0C17.3075 0 14.70713 0.544 12.33163 1.524C13.29625 2.684 14.32525 3.812 15.38625 4.872Z" fill="#F5F5F5"/>
<path d="M6.355063 5.696C10.26979 9.576 16.52375 12.88 24.084 15.152C20.137125 12.932 16.47150 10.176 13.268125 6.988C12.078463 5.804 10.933 4.544 9.859838 3.236L9.594575 2.912C8.360650 3.66 7.219188 4.54 6.182225 5.524L6.355063 5.696Z" fill="#F5F5F5"/>
<path d="M15.38625 35.128C14.32125 36.188 13.29225 37.316 12.33163 38.476C14.70713 39.456 17.3075 40 20.03663 40C30.37013 40 38.87475 32.236 40.00425 22.252C30.66750 23.94 22.15475 28.392 15.39025 35.124L15.38625 35.128Z" fill="#F5F5F5"/>
<path d="M13.658 14.3C9.851813 12.408 6.696688 10.236 4.273075 7.848L4.164563 7.74C1.805263 10.756 0.302044 14.464 0.00061035 18.508H24.948125C20.820250 17.384 16.994 15.96 13.654 14.296L13.658 14.3Z" fill="#F5F5F5"/>
</svg>
