<svg width="24" height="24" viewBox="0 0 24 24" fill="none" xmlns="http://www.w3.org/2000/svg">
<path d="M14.4504 14.9112C9.91425 16.272 6.16187 18.2568 3.81304 20.5824L3.70934 20.6856C4.33393 21.276 5.01881 21.804 5.75916 22.2528L5.91832 22.0584C6.55978 21.276 7.24708 20.52 7.96328 19.8072C9.88531 17.8944 12.0847 16.2384 14.4528 14.9088L14.4504 14.9112Z" fill="#F5F5F5"/>
<path d="M0.000366211 12.8952C0.181226 15.3216 1.08316 17.5464 2.49874 19.356L2.56385 19.2912C4.01801 17.8584 5.91109 16.5552 8.1948 15.42C10.1964 14.424 12.4946 13.5696 14.9713 12.8952H0.000366211Z" fill="#F5F5F5"/>
<path d="M9.23175 2.9232C13.2905 6.9624 18.3981 9.6336 24.0002 10.6464C23.3249 4.6584 18.2221 0 12.022 0C10.3845 0 8.82428 0.3264 7.39898 0.9144C7.97775 1.6104 8.59515 2.2872 9.23175 2.9232Z" fill="#F5F5F5"/>
<path d="M3.81304 3.41761C6.16187 5.74561 9.91425 7.72801 14.4504 9.09121C12.0823 7.75921 9.88531 6.10561 7.96088 4.19281C7.24708 3.48241 6.55978 2.72641 5.9159 1.94161L5.75675 1.74721C4.0164 2.19601 5.01881 2.72401 3.70934 3.31441L3.81304 3.41761Z" fill="#F5F5F5"/>
<path d="M9.23175 21.0768C8.59275 21.7128 7.97535 22.3896 7.39898 23.0856C8.82188 23.6736 10.3845 24 12.022 24C18.2221 24 23.3249 19.3416 24.0026 13.3512C18.4005 14.364 13.2929 17.0352 9.23415 21.0744L9.23175 21.0768Z" fill="#F5F5F5"/>
<path d="M8.1948 8.58C5.91109 7.4448 4.01801 6.1416 2.56385 4.7088L2.49874 4.644C1.08316 6.4536 0.181226 8.6784 0.000366211 11.1048H14.9689C12.4922 10.4304 10.1964 9.576 8.1924 8.5776L8.1948 8.58Z" fill="#F5F5F5"/>
</svg> 