<svg width="24" height="24" viewBox="0 0 24 24" fill="none" xmlns="http://www.w3.org/2000/svg">
<g clip-path="url(#clip0_4581_5759)">
<path d="M24 12C24 5.37258 18.6274 0 12 0C5.37258 0 0 5.37258 0 12C0 18.6274 5.37258 24 12 24C18.6274 24 24 18.6274 24 12Z" fill="#141416"/>
<path d="M13.8368 14.1834C10.4347 15.204 7.6204 16.6926 5.85877 18.4368L5.78099 18.5142C6.24944 18.957 6.7631 19.353 7.31836 19.6896L7.43773 19.5438C7.91882 18.957 8.4343 18.39 8.97145 17.8554C10.4129 16.4208 12.0625 15.1788 13.8386 14.1816L13.8368 14.1834Z" fill="#F5F5F5"/>
<path d="M2.99927 12.6714C3.13491 14.4912 3.81136 16.1598 4.87304 17.517L4.92188 17.4684C6.0125 16.3938 7.43231 15.4164 9.14507 14.565C10.6463 13.818 12.3699 13.1772 14.2274 12.6714H2.99927Z" fill="#F5F5F5"/>
<path d="M9.92282 5.1924C12.9668 8.2218 16.7975 10.2252 20.9991 10.9848C20.4926 6.4938 16.6655 3 12.0155 3C10.7873 3 9.6172 3.2448 8.54822 3.6858C8.98232 4.2078 9.44537 4.7154 9.92282 5.1924Z" fill="#F5F5F5"/>
<path d="M5.85877 5.56321C7.6204 7.30921 10.4347 8.796 13.8368 9.8184C12.0607 8.8194 10.4111 7.5792 8.96965 6.14461C8.4343 5.61181 7.91882 5.04481 7.43592 4.45621L7.31655 4.31041C6.76129 4.64701 6.24763 5.04301 5.78099 5.48581L5.85877 5.56321Z" fill="#F5F5F5"/>
<path d="M9.92282 18.8076C9.44357 19.2846 8.98052 19.7922 8.54822 20.3142C9.6154 20.7552 10.7873 21 12.0155 21C16.6655 21 20.4926 17.5062 21.0009 13.0134C16.7993 13.773 12.9686 15.7764 9.92462 18.8058L9.92282 18.8076Z" fill="#F5F5F5"/>
<path d="M9.14507 9.435C7.43231 8.5836 6.0125 7.6062 4.92188 6.5316L4.87304 6.483C3.81136 7.8402 3.13491 9.5088 2.99927 11.3286H14.2256C12.3681 10.8228 10.6463 10.182 9.14327 9.4332L9.14507 9.435Z" fill="#F5F5F5"/>
</g>
<defs>
<clipPath id="clip0_4581_5759">
<rect width="24" height="24" fill="white"/>
</clipPath>
</defs>
</svg>
